<svg xmlns="http://www.w3.org/2000/svg" width="391.539" height="200" viewBox="0 0 391.539 200">
  <g id="_403" data-name="403" transform="translate(0 0)">
    <g id="Group_142" data-name="Group 142" transform="translate(116.421 69.604)">
      <g id="Group_139" data-name="Group 139" transform="translate(5.847 5.847)">
        <circle id="Ellipse_24" data-name="Ellipse 24" cx="59.643" cy="59.643" r="59.643" transform="translate(2.631 2.631)" fill="#68627c"/>
        <path id="Path_547" data-name="Path 547" d="M278.874,268.449a62.274,62.274,0,1,1,62.274-62.274A62.363,62.363,0,0,1,278.874,268.449Zm0-119.286a57.012,57.012,0,1,0,57.012,57.012A57.085,57.085,0,0,0,278.874,149.163Z" transform="translate(-216.6 -143.9)" fill="#68627c"/>
      </g>
      <g id="Group_141" data-name="Group 141">
        <g id="Group_140" data-name="Group 140">
          <circle id="Ellipse_25" data-name="Ellipse 25" cx="59.643" cy="59.643" r="59.643" transform="translate(2.631 2.631)" fill="#fff"/>
          <path id="Path_548" data-name="Path 548" d="M268.874,258.449a62.274,62.274,0,1,1,62.274-62.274A62.363,62.363,0,0,1,268.874,258.449Zm0-119.286a57.012,57.012,0,1,0,57.012,57.012A57.085,57.085,0,0,0,268.874,139.163Z" transform="translate(-206.6 -133.9)" fill="#444151"/>
        </g>
      </g>
    </g>
    <g id="Group_143" data-name="Group 143" transform="translate(124.49 77.323)">
      <circle id="Ellipse_26" data-name="Ellipse 26" cx="53.562" cy="53.562" r="53.562" transform="translate(0.585 0.585)" fill="#a4d6ff"/>
      <path id="Path_549" data-name="Path 549" d="M274.547,255.393a54.147,54.147,0,1,1,54.147-54.147A54.215,54.215,0,0,1,274.547,255.393Zm0-107.124a52.977,52.977,0,1,0,52.977,52.977A53.042,53.042,0,0,0,274.547,148.269Z" transform="translate(-220.4 -147.1)" fill="#68627c"/>
    </g>
    <g id="Group_144" data-name="Group 144" transform="translate(157.996 86.152)">
      <circle id="Ellipse_27" data-name="Ellipse 27" cx="1.637" cy="1.637" r="1.637" transform="translate(21.401 0)" fill="#fff"/>
      <circle id="Ellipse_28" data-name="Ellipse 28" cx="1.169" cy="1.169" r="1.169" transform="translate(17.016 18.595)" fill="#fff"/>
      <circle id="Ellipse_29" data-name="Ellipse 29" cx="1.345" cy="1.345" r="1.345" transform="translate(39.528 20.875)" fill="#fff"/>
      <circle id="Ellipse_30" data-name="Ellipse 30" cx="0.643" cy="0.643" r="0.643" transform="translate(39.587 6.724)" fill="#fff"/>
      <circle id="Ellipse_31" data-name="Ellipse 31" cx="1.345" cy="1.345" r="1.345" transform="translate(31.517 13.098)" fill="#fff"/>
      <circle id="Ellipse_32" data-name="Ellipse 32" cx="2.456" cy="2.456" r="2.456" transform="translate(56.31 60.345)" fill="#fff"/>
      <circle id="Ellipse_33" data-name="Ellipse 33" cx="0.936" cy="0.936" r="0.936" transform="translate(18.185 43.446)" fill="#fff"/>
      <circle id="Ellipse_34" data-name="Ellipse 34" cx="0.819" cy="0.819" r="0.819" transform="translate(59.526 42.393)" fill="#fff"/>
      <circle id="Ellipse_35" data-name="Ellipse 35" cx="2.456" cy="2.456" r="2.456" transform="translate(6.666 76.074)" fill="#fff"/>
      <circle id="Ellipse_36" data-name="Ellipse 36" cx="0.819" cy="0.819" r="0.819" transform="translate(17.016 69.408)" fill="#fff"/>
      <circle id="Ellipse_37" data-name="Ellipse 37" cx="0.643" cy="0.643" r="0.643" transform="translate(39.587 87.71)" fill="#fff"/>
      <circle id="Ellipse_38" data-name="Ellipse 38" cx="0.76" cy="0.76" r="0.76" transform="translate(0 14.618)" fill="#fff"/>
      <circle id="Ellipse_39" data-name="Ellipse 39" cx="0.409" cy="0.409" r="0.409" transform="translate(63.093 20.934)" fill="#fff"/>
      <circle id="Ellipse_40" data-name="Ellipse 40" cx="0.585" cy="0.585" r="0.585" transform="translate(21.401 75.256)" fill="#fff"/>
    </g>
    <g id="Group_145" data-name="Group 145" transform="translate(134.111 99.279)">
      <circle id="Ellipse_41" data-name="Ellipse 41" cx="1.637" cy="1.637" r="1.637" transform="translate(82.502 19.626) rotate(-7.695)" fill="#fff"/>
      <circle id="Ellipse_42" data-name="Ellipse 42" cx="1.169" cy="1.169" r="1.169" transform="translate(64.372 17.634) rotate(-7.695)" fill="#fff"/>
      <circle id="Ellipse_43" data-name="Ellipse 43" cx="1.345" cy="1.345" r="1.345" transform="translate(22.013 41.629) rotate(-7.695)" fill="#fff"/>
      <circle id="Ellipse_44" data-name="Ellipse 44" cx="0.643" cy="0.643" r="0.643" transform="translate(80.231 38.314) rotate(-7.695)" fill="#fff"/>
      <circle id="Ellipse_45" data-name="Ellipse 45" cx="1.345" cy="1.345" r="1.345" transform="translate(71.424 31.343) rotate(-7.695)" fill="#fff"/>
      <circle id="Ellipse_46" data-name="Ellipse 46" cx="1.579" cy="1.579" r="1.579" transform="translate(22.044 60.782) rotate(-7.695)" fill="#fff"/>
      <circle id="Ellipse_47" data-name="Ellipse 47" cx="0.936" cy="0.936" r="0.936" transform="translate(40.37 22.1) rotate(-7.695)" fill="#fff"/>
      <circle id="Ellipse_48" data-name="Ellipse 48" cx="0.819" cy="0.819" r="0.819" transform="translate(47.225 62.895) rotate(-7.695)" fill="#fff"/>
      <circle id="Ellipse_49" data-name="Ellipse 49" cx="2.456" cy="2.456" r="2.456" transform="translate(2.936 15.475) rotate(-7.695)" fill="#fff"/>
      <circle id="Ellipse_50" data-name="Ellipse 50" cx="0.819" cy="0.819" r="0.819" transform="translate(14.772 24.361) rotate(-7.695)" fill="#fff"/>
      <circle id="Ellipse_51" data-name="Ellipse 51" cx="0.643" cy="0.643" r="0.643" transform="translate(0 49.127) rotate(-7.695)" fill="#fff"/>
      <circle id="Ellipse_52" data-name="Ellipse 52" cx="0.76" cy="0.76" r="0.76" transform="translate(66.885 0.204) rotate(-7.695)" fill="#fff"/>
      <circle id="Ellipse_53" data-name="Ellipse 53" cx="0.409" cy="0.409" r="0.409" transform="translate(69.792 63.48) rotate(-7.695)" fill="#fff"/>
      <circle id="Ellipse_54" data-name="Ellipse 54" cx="0.585" cy="0.585" r="0.585" transform="translate(9.949 29.419) rotate(-7.695)" fill="#fff"/>
    </g>
    <g id="Слой_9" transform="translate(75.887)">
      <path id="Path_550" data-name="Path 550" d="M199.424,154.172a3.09,3.09,0,0,1-1.988,1.228,6.205,6.205,0,0,1-3.1-.058,2.887,2.887,0,0,1-1.93-1.169V65.526a2.466,2.466,0,0,0-2.4-2.105,2.418,2.418,0,0,0-2.4,2.105V91.255c0,5.263-4.678,9.531-10.467,9.531H149.254a10.837,10.837,0,0,1-8.3-3.684,8.667,8.667,0,0,1-2.047-7.251l11.4-70.051,6.9,1.111L145.8,90.962a1.878,1.878,0,0,0,.468,1.579,3.868,3.868,0,0,0,2.924,1.228h27.892c1.871,0,3.45-1.169,3.45-2.514V65.526a9.419,9.419,0,0,1,18.829,0v88.646Z" transform="translate(-137.898 -16.914)" fill="#444151"/>
      <path id="Path_551" data-name="Path 551" d="M216.483,96.408a3.971,3.971,0,0,0-1.4-1.4,3.928,3.928,0,0,0-2.982-.234,5.049,5.049,0,0,0-1.7.819l-.7-.936a5.806,5.806,0,0,1,2.105-.994,5.512,5.512,0,0,1,3.859.351,4.8,4.8,0,0,1,1.871,1.871Z" transform="translate(-167.353 -47.503)" fill="#fff"/>
      <path id="Path_552" data-name="Path 552" d="M218.06,92.106a3.858,3.858,0,0,0-1.345-2.807,3.553,3.553,0,0,0-1.93-.76,4.775,4.775,0,0,0-2.047.292,3.692,3.692,0,0,0-1.4,1.169l-.936-.643a5.273,5.273,0,0,1,1.871-1.579,4.954,4.954,0,0,1,5.146.643,5.249,5.249,0,0,1,1.813,3.684Z" transform="translate(-167.644 -44.956)" fill="#fff"/>
      <path id="Path_553" data-name="Path 553" d="M222.36,90.271l-1.111-.409a4.87,4.87,0,0,0,.234-2.631,3.41,3.41,0,0,0-1.579-2.4,3.641,3.641,0,0,0-2.631-.409,4.059,4.059,0,0,0-1.813.936l-.76-.877a4.931,4.931,0,0,1,2.339-1.169,4.749,4.749,0,0,1,3.508.526A4.549,4.549,0,0,1,222.594,87,5.492,5.492,0,0,1,222.36,90.271Z" transform="translate(-169.43 -43.238)" fill="#fff"/>
      <path id="Path_554" data-name="Path 554" d="M228.486,90.4l-.7-.936a4.726,4.726,0,0,0,.994-5.964,4.046,4.046,0,0,0-1.579-1.345l.526-1.053a5.009,5.009,0,0,1,2.807,4.561,5.828,5.828,0,0,1-.819,3.333A3.951,3.951,0,0,1,228.486,90.4Z" transform="translate(-174.62 -42.37)" fill="#fff"/>
      <path id="Path_555" data-name="Path 555" d="M231.88,96.423h0a5.077,5.077,0,0,1-2.28-.585l.585-1.053a3.684,3.684,0,0,0,1.7.468,3.794,3.794,0,0,0,2.4-.877,4.313,4.313,0,0,0,1.4-3.859l1.169-.117a5.624,5.624,0,0,1-1.871,4.912A4.807,4.807,0,0,1,231.88,96.423Z" transform="translate(-175.617 -46.232)" fill="#fff"/>
      <path id="Path_556" data-name="Path 556" d="M232.539,102.018a5.118,5.118,0,0,1-.936-.117,3.187,3.187,0,0,1-1.4-.7l.7-.936a2.166,2.166,0,0,0,1.053.468,3.307,3.307,0,0,0,2.4-.409,5.4,5.4,0,0,0,2.339-2.222l.994.585a6.524,6.524,0,0,1-2.865,2.748A5.134,5.134,0,0,1,232.539,102.018Z" transform="translate(-175.866 -49.429)" fill="#fff"/>
      <path id="Path_557" data-name="Path 557" d="M141.525,144.6a5.84,5.84,0,0,1-2.28-.468,6.117,6.117,0,0,1-1.345-.76l.7-.936a6.89,6.89,0,0,0,1.111.643,4.758,4.758,0,0,0,3.742-.058,4.958,4.958,0,0,0,1.813-1.52l.936.7a6.149,6.149,0,0,1-2.222,1.871A7.149,7.149,0,0,1,141.525,144.6Z" transform="translate(-137.537 -67.452)" fill="#fcfcfc"/>
      <path id="Path_558" data-name="Path 558" d="M142.237,148.6a5.045,5.045,0,0,1-1.637-.234l.292-1.111a4.9,4.9,0,0,0,2.047.117,5.533,5.533,0,0,0,3.216-1.637,6.23,6.23,0,0,0,1.111-1.637l1.053.526a7.928,7.928,0,0,1-1.345,1.988,6.53,6.53,0,0,1-3.859,1.93A4.426,4.426,0,0,1,142.237,148.6Z" transform="translate(-138.659 -68.532)" fill="#fcfcfc"/>
      <path id="Path_559" data-name="Path 559" d="M148.451,152.909,148.1,151.8a7.125,7.125,0,0,0,2.69-1.52,6.155,6.155,0,0,0,1.637-2.573,5.742,5.742,0,0,0,.175-1.988l1.169-.117a7.025,7.025,0,0,1-.234,2.456,7.224,7.224,0,0,1-5.087,4.853Z" transform="translate(-141.773 -69.155)" fill="#fcfcfc"/>
      <path id="Path_560" data-name="Path 560" d="M155.5,153.469l-.7-.936a6.7,6.7,0,0,0,1.286-1.286A7.078,7.078,0,0,0,157.2,148.5a8.535,8.535,0,0,0,.117-2.982l1.169-.117a11.037,11.037,0,0,1-.175,3.391,7.517,7.517,0,0,1-1.345,3.158A5.163,5.163,0,0,1,155.5,153.469Z" transform="translate(-144.555 -69.071)" fill="#fcfcfc"/>
      <path id="Path_561" data-name="Path 561" d="M168.553,153.537l-1.053-.585a5.621,5.621,0,0,0,.643-1.637,10.805,10.805,0,0,0,.175-3.567,12.121,12.121,0,0,0-.468-2.456l1.111-.292a13.817,13.817,0,0,1,.468,2.631,10.491,10.491,0,0,1-.175,3.976A9.4,9.4,0,0,1,168.553,153.537Z" transform="translate(-149.829 -68.905)" fill="#fcfcfc"/>
      <path id="Path_562" data-name="Path 562" d="M195.3,155.747a7.33,7.33,0,0,1-1.813-.234,3.607,3.607,0,0,1-2.4-1.462l-.175-.234v-89a1.555,1.555,0,0,0-3.041,0V90.549c0,5.73-5.087,10.408-11.344,10.408H148.636a11.765,11.765,0,0,1-8.946-3.976,9.714,9.714,0,0,1-2.28-7.952L148.928,18.1l8.654,1.4L146.063,90.432c-.058.175-.058.468.292.877a2.943,2.943,0,0,0,2.28.936h27.892c1.462,0,2.573-.877,2.573-1.637V64.82a10.3,10.3,0,0,1,20.583,0v88.938l-.175.234a3.92,3.92,0,0,1-2.573,1.579A8.225,8.225,0,0,1,195.3,155.747Zm-2.631-2.573c.234.292.468.409,1.286.643a5.259,5.259,0,0,0,2.69.058,2.43,2.43,0,0,0,1.286-.643V64.82a8.542,8.542,0,0,0-17.074,0V90.549c0,1.871-1.93,3.391-4.327,3.391H148.636a4.835,4.835,0,0,1-3.625-1.52,2.822,2.822,0,0,1-.7-2.28l11.285-69.174-5.2-.819L139.1,89.321a7.962,7.962,0,0,0,1.871,6.549,9.875,9.875,0,0,0,7.6,3.391h27.892c5.263,0,9.59-3.859,9.59-8.654V64.82a3.355,3.355,0,0,1,3.275-2.982,3.265,3.265,0,0,1,3.275,2.982v88.354Z" transform="translate(-137.28 -16.208)" fill="#444151"/>
      <g id="Group_146" data-name="Group 146" transform="translate(11.316)">
        <ellipse id="Ellipse_55" data-name="Ellipse 55" cx="2.28" cy="3.684" rx="2.28" ry="3.684" transform="translate(0.541 4.871) rotate(-81.396)" fill="#fff"/>
        <path id="Path_563" data-name="Path 563" d="M161.7,21.259a5.673,5.673,0,0,1-.994-.058,6.618,6.618,0,0,1-2.924-1.228,2.664,2.664,0,0,1-1.111-2.573,2.826,2.826,0,0,1,1.813-2.105,5.648,5.648,0,0,1,3.158-.351c2.514.409,4.327,2.047,4.035,3.8h0a2.826,2.826,0,0,1-1.813,2.105A5.286,5.286,0,0,1,161.7,21.259Zm-1.053-4.678a3.83,3.83,0,0,0-1.462.292,1.188,1.188,0,0,0-.819.76c-.058.292.175.643.526.994a4.118,4.118,0,0,0,2.047.877,3.984,3.984,0,0,0,2.222-.234,1.188,1.188,0,0,0,.819-.76h0c.117-.643-.994-1.579-2.573-1.813A1.858,1.858,0,0,0,160.648,16.581Z" transform="translate(-156.632 -14.865)" fill="#444151"/>
      </g>
    </g>
    <g id="Слой_11" transform="translate(196.467 7.136)">
      <g id="Group_148" data-name="Group 148" transform="translate(0 0)">
        <g id="Group_147" data-name="Group 147">
          <path id="Path_564" data-name="Path 564" d="M354.358,168.8c39.879,30.757,85.255,39.294,113.731,21.051,4.152-2.631,24.617-15.9,27.775-39.7,2.69-20.173-8.654-36.2-12.221-40.581a56.774,56.774,0,0,0-9.765-9.3c-7.426,7.894-17.191,12.806-26.547,12.923-3.041.058-12.163.117-17.776-6.9a16.885,16.885,0,0,1-3.508-13.1c.819-4.736,3.625-8.713,8.42-11.812,10.759-7.017,24.442-1.637,31.049.936,1.871.76,3.684,1.579,5.38,2.4a17.627,17.627,0,0,0,.936-1.813c4.327-9.122,4.795-17.776,1.4-25.144-2.631-5.672-7.251-10.116-13.858-13.215a31.89,31.89,0,0,0-16.723-2.69c-3.684.409-9.765,1.053-15.145,5.847a22.782,22.782,0,0,0-6.958,11.929L409.089,56.88a34.729,34.729,0,0,1,10.584-17.893c8.186-7.309,17.308-8.3,21.694-8.771a43.931,43.931,0,0,1,23.039,3.742c11.344,5.38,16.84,13.274,19.472,18.945,4.795,10.467,4.269,22.922-1.52,35.084-.468.994-.994,1.988-1.52,2.924a65.115,65.115,0,0,1,11.929,11.344c5.5,6.841,17.893,25.319,14.677,49.469-2.514,18.887-14.268,35.961-33.038,48.007-11.753,7.543-25.9,11.344-41.575,11.344a109.507,109.507,0,0,1-18.653-1.7c-22.629-3.976-45.785-14.852-67.011-31.342a6.237,6.237,0,0,1,2.807-8.3A7.565,7.565,0,0,1,354.358,168.8Zm92.505-79.173a10.955,10.955,0,0,0-6.14,1.579c-.7.468-2.924,1.93-3.275,3.976a5.066,5.066,0,0,0,1.169,3.859c2.047,2.573,6.724,2.514,8.537,2.456,5.438-.058,11.344-2.865,16.256-7.368-.76-.351-1.462-.643-2.28-.936C457.856,91.906,452.067,89.625,446.863,89.625Z" transform="translate(-344.763 -28.268)" fill="#68627c"/>
          <path id="Path_565" data-name="Path 565" d="M431.5,211.63a112.859,112.859,0,0,1-18.945-1.7c-22.922-4.035-46.311-15.028-67.771-31.634l-.351-.292-.175-.409a8.241,8.241,0,0,1-.643-4.912,8.413,8.413,0,0,1,4.152-5.672,9.017,9.017,0,0,1,5.38-1.169l.526.058.409.292c19.355,14.969,40.23,24.851,60.4,28.535,20,3.742,37.774,1.053,51.281-7.6,8.946-5.73,24.267-18.3,26.956-38.476,2.573-19.53-8.42-34.967-11.87-39.236a53.03,53.03,0,0,0-8.186-8.011c-7.836,7.777-17.484,12.221-26.722,12.338-3.216.058-13.04.175-19.179-7.543a18.924,18.924,0,0,1-3.918-14.5c.877-5.2,3.976-9.59,9.18-12.981,11.519-7.485,25.787-1.93,32.628.76,1.345.526,2.69,1.111,3.976,1.7.058-.058.058-.175.117-.234,4.093-8.6,4.561-16.782,1.4-23.682-2.456-5.263-6.841-9.473-13.04-12.4a30.157,30.157,0,0,0-15.788-2.514c-3.45.351-9.239.994-14.151,5.438a21.2,21.2,0,0,0-6.432,11.052l-.409,1.7-14.794-3.567.409-1.7a36.091,36.091,0,0,1,11.11-18.77c8.6-7.66,18.068-8.713,22.688-9.18a46.28,46.28,0,0,1,23.974,3.918c11.87,5.613,17.6,13.858,20.29,19.764,5.029,10.935,4.5,23.916-1.52,36.546-.292.585-.585,1.111-.877,1.7A69.241,69.241,0,0,1,492.663,100c5.613,7.017,18.361,25.962,15.028,50.814-2.573,19.413-14.618,36.9-33.856,49.235-11.87,7.66-26.138,11.578-42.335,11.578Zm-84.144-35.9c20.875,16.139,43.621,26.781,65.841,30.7a105.686,105.686,0,0,0,18.361,1.7h0c15.5,0,29.12-3.742,40.639-11.11,18.361-11.753,29.822-28.36,32.277-46.779,3.1-23.448-8.946-41.458-14.326-48.124a65.015,65.015,0,0,0-11.578-11.052l-1.228-.936.76-1.345c.526-.936.994-1.871,1.462-2.807,5.555-11.695,6.081-23.623,1.462-33.564-2.456-5.38-7.719-12.923-18.653-18.068a42.2,42.2,0,0,0-22.1-3.567c-4.21.468-12.981,1.4-20.7,8.3a33.242,33.242,0,0,0-9.59,15.32l7.952,1.93a24.6,24.6,0,0,1,7.075-11.11c5.789-5.146,12.279-5.847,16.139-6.315a33.88,33.88,0,0,1,17.717,2.865c6.958,3.275,11.929,8.069,14.677,14.092,3.625,7.835,3.1,17.074-1.462,26.664-.292.643-.643,1.286-.994,1.93l-.819,1.462-1.52-.76c-1.7-.877-3.508-1.637-5.263-2.339-6.315-2.456-19.413-7.6-29.471-1.053-4.386,2.865-6.958,6.432-7.66,10.642a15.291,15.291,0,0,0,3.158,11.695c5.087,6.374,13.624,6.257,16.373,6.2,8.713-.117,17.951-4.619,25.319-12.4l1.053-1.111,1.228.936a57.978,57.978,0,0,1,10.057,9.59c3.684,4.561,15.379,21.051,12.572,41.926-2.865,21.518-19.121,34.909-28.535,40.932-14.326,9.18-32.921,11.987-53.854,8.128-20.524-3.8-41.809-13.8-61.456-28.886a5.512,5.512,0,0,0-2.807.7,4.858,4.858,0,0,0-2.456,3.275A5.327,5.327,0,0,0,347.356,175.727Zm97.885-73.677c-2.339,0-6.9-.234-9.239-3.158a7.185,7.185,0,0,1-1.52-5.263c.468-2.807,3.158-4.561,4.035-5.146a12.741,12.741,0,0,1,7.075-1.871c5.5,0,11.4,2.339,14.911,3.684.76.292,1.579.643,2.339.994L465.3,92.4l-1.988,1.813c-5.38,4.912-11.753,7.719-17.425,7.835Zm.351-11.87a9.075,9.075,0,0,0-5.146,1.286c-1.52.994-2.339,1.93-2.514,2.807a3.826,3.826,0,0,0,.76,2.456c1.52,1.871,5.73,1.871,7.134,1.813,4.152-.058,8.771-1.871,12.923-5.087C455.474,92.168,450.211,90.18,445.592,90.18Z" transform="translate(-343.492 -27.068)" fill="#444151"/>
        </g>
        <path id="Path_566" data-name="Path 566" d="M540.247,134.468,538.2,131.6c1.228-.877,2.4-1.813,3.567-2.807a29.529,29.529,0,0,0,4.093-3.976,35.783,35.783,0,0,0,3.391-5.613c.468-.936.936-1.871,1.345-2.807l3.216,1.4c-.409.994-.936,1.988-1.4,2.982a34.712,34.712,0,0,1-3.742,6.257,29.438,29.438,0,0,1-4.5,4.444C542.819,132.539,541.533,133.533,540.247,134.468Z" transform="translate(-424.347 -64.164)" fill="#444151"/>
        <path id="Path_567" data-name="Path 567" d="M556.105,144.811,554,142a36.786,36.786,0,0,0,4.736-4.327c1.111-1.228,1.871-2.28,3.45-4.386a48.05,48.05,0,0,0,3.274-4.736,37.448,37.448,0,0,0,2.69-5.555l3.275,1.228a44.766,44.766,0,0,1-2.924,6.081,51.459,51.459,0,0,1-3.508,5.029,50.6,50.6,0,0,1-3.684,4.619A31.434,31.434,0,0,1,556.105,144.811Z" transform="translate(-430.908 -66.905)" fill="#444151"/>
      </g>
      <g id="Group_149" data-name="Group 149" transform="translate(61.987 24.402)">
        <ellipse id="Ellipse_56" data-name="Ellipse 56" cx="6.081" cy="5.029" rx="6.081" ry="5.029" transform="translate(1.754 1.696)" fill="#fcfcfa"/>
        <path id="Path_568" data-name="Path 568" d="M457.335,82.366c-4.327,0-7.835-3.041-7.835-6.783s3.508-6.783,7.835-6.783,7.835,3.041,7.835,6.783S461.663,82.366,457.335,82.366Zm0-10.116c-2.4,0-4.327,1.462-4.327,3.275s1.93,3.275,4.327,3.275,4.327-1.462,4.327-3.275S459.733,72.25,457.335,72.25Z" transform="translate(-449.5 -68.8)" fill="#444151"/>
      </g>
      <path id="Path_569" data-name="Path 569" d="M511.038,163.966a8.535,8.535,0,0,1-1.871-8.6,8.787,8.787,0,0,1,4.853-4.97l.877,2.164a6.182,6.182,0,0,0-3.508,3.567,6,6,0,0,0,1.4,6.2Z" transform="translate(-412.096 -78.283)" fill="#444151"/>
      <path id="Path_570" data-name="Path 570" d="M500.763,161.8a10.928,10.928,0,0,1-.409-5.73,9.273,9.273,0,0,1,1.988-4.269,8.558,8.558,0,0,1,3.333-2.4l.877,2.164a6.325,6.325,0,0,0-3.918,4.97,8.382,8.382,0,0,0,.292,4.5Z" transform="translate(-408.545 -77.868)" fill="#444151"/>
      <path id="Path_571" data-name="Path 571" d="M495.068,131.493a8.039,8.039,0,0,0-1.93-2.047,6.6,6.6,0,0,0-3.684-1.52,6.473,6.473,0,0,0-4.152,1.228l-1.4-1.871a8.547,8.547,0,0,1,10.642.292A9.556,9.556,0,0,1,497,130.207Z" transform="translate(-401.798 -67.972)" fill="#444151"/>
      <path id="Path_572" data-name="Path 572" d="M499.859,129.4a6.487,6.487,0,0,0-.994-3.158,8.132,8.132,0,0,0-1.813-1.93,6.948,6.948,0,0,0-3.508-1.4,7.046,7.046,0,0,0-3.45.585l-.994-2.105a9.076,9.076,0,0,1,4.619-.819,9.575,9.575,0,0,1,4.678,1.813,8.89,8.89,0,0,1,2.4,2.573,9.167,9.167,0,0,1,1.345,4.269Z" transform="translate(-403.958 -65.884)" fill="#444151"/>
      <path id="Path_573" data-name="Path 573" d="M519.887,123.257l-1.93-1.345a8.39,8.39,0,0,0,1.4-3.625,4.968,4.968,0,0,0-.351-3.1c-.76-1.52-3.333-2.573-4.21-2.865l.7-2.222c.175.058,4.269,1.345,5.613,4.035a7.271,7.271,0,0,1,.526,4.386A8.87,8.87,0,0,1,519.887,123.257Z" transform="translate(-414.63 -61.548)" fill="#444151"/>
      <path id="Path_574" data-name="Path 574" d="M490.587,157.385a9.475,9.475,0,0,1,.409-5.964,8.558,8.558,0,0,1,3.391-4.035,9.154,9.154,0,0,1,3.859-1.286l.175,2.339a5.938,5.938,0,0,0-2.807.936,6.2,6.2,0,0,0-2.456,2.982,7.093,7.093,0,0,0-.292,4.444Z" transform="translate(-404.451 -76.498)" fill="#444151"/>
      <path id="Path_575" data-name="Path 575" d="M487.18,149.169l-2.28-.468a9.243,9.243,0,0,1,1.871-3.976,9.654,9.654,0,0,1,3.859-2.748,10.8,10.8,0,0,1,4.327-.877v2.339a8.877,8.877,0,0,0-3.45.7,7.132,7.132,0,0,0-2.982,2.047A6.3,6.3,0,0,0,487.18,149.169Z" transform="translate(-402.214 -74.421)" fill="#444151"/>
      <path id="Path_576" data-name="Path 576" d="M526.63,124.632l-1.93-1.345a14.665,14.665,0,0,0,1.7-3.1,6.7,6.7,0,0,0,.643-2.28,5.589,5.589,0,0,0-.234-2.631,5.006,5.006,0,0,0-1.52-2.28l1.579-1.7a7.355,7.355,0,0,1,2.105,3.216,7.926,7.926,0,0,1,.351,3.625,9.23,9.23,0,0,1-.819,2.865A12.571,12.571,0,0,1,526.63,124.632Z" transform="translate(-418.741 -62.047)" fill="#444151"/>
    </g>
    <circle id="Ellipse_57" data-name="Ellipse 57" cx="6.315" cy="6.315" r="6.315" transform="translate(66.718 117.903)" fill="#68627c"/>
    <circle id="Ellipse_58" data-name="Ellipse 58" cx="3.45" cy="3.45" r="3.45" transform="translate(82.448 164.682)" fill="#68627c"/>
    <circle id="Ellipse_59" data-name="Ellipse 59" cx="3.099" cy="3.099" r="3.099" transform="translate(356.221 14.23)" fill="#68627c"/>
    <circle id="Ellipse_60" data-name="Ellipse 60" cx="1.754" cy="1.754" r="1.754" transform="translate(40.405 29.725)" fill="#68627c"/>
    <circle id="Ellipse_61" data-name="Ellipse 61" cx="3.216" cy="3.216" r="3.216" transform="translate(28.711 67.967)" fill="#68627c"/>
    <circle id="Ellipse_62" data-name="Ellipse 62" cx="4.97" cy="4.97" r="4.97" transform="translate(371.366 29.14)" fill="#68627c"/>
    <circle id="Ellipse_63" data-name="Ellipse 63" cx="1.637" cy="1.637" r="1.637" transform="translate(14.092 74.399)" fill="#68627c"/>
    <circle id="Ellipse_64" data-name="Ellipse 64" cx="0.643" cy="0.643" r="0.643" transform="translate(304.764 125.154)" fill="#68627c"/>
    <circle id="Ellipse_65" data-name="Ellipse 65" cx="1.579" cy="1.579" r="1.579" transform="translate(381.665 130.244) rotate(-50.942)" fill="#68627c"/>
    <circle id="Ellipse_66" data-name="Ellipse 66" cx="1.813" cy="1.813" r="1.813" transform="translate(350.9 25.515)" fill="#68627c"/>
    <circle id="Ellipse_67" data-name="Ellipse 67" cx="1.813" cy="1.813" r="1.813" transform="translate(21.694 81.65)" fill="#68627c"/>
    <circle id="Ellipse_68" data-name="Ellipse 68" cx="2.807" cy="2.807" r="2.807" transform="translate(52.1 133.106)" fill="#68627c"/>
    <circle id="Ellipse_69" data-name="Ellipse 69" cx="2.69" cy="2.69" r="2.69" transform="translate(290.731 116.792)" fill="#68627c"/>
    <circle id="Ellipse_70" data-name="Ellipse 70" cx="2.924" cy="2.924" r="2.924" transform="translate(215.709 40.484)" fill="#68627c"/>
    <circle id="Ellipse_71" data-name="Ellipse 71" cx="1.462" cy="1.462" r="1.462" transform="translate(247.402 2.886)" fill="#68627c"/>
    <circle id="Ellipse_72" data-name="Ellipse 72" cx="2.339" cy="2.339" r="2.339" transform="translate(227.521 33.233)" fill="#68627c"/>
    <circle id="Ellipse_73" data-name="Ellipse 73" cx="1.813" cy="1.813" r="1.813" transform="translate(73.034 138.778)" fill="#68627c"/>
    <circle id="Ellipse_74" data-name="Ellipse 74" cx="2.28" cy="2.28" r="2.28" transform="translate(0 118.605)" fill="#68627c"/>
    <ellipse id="Ellipse_75" data-name="Ellipse 75" cx="2.514" rx="2.514" transform="translate(386.511 185.031)" fill="#68627c"/>
    <circle id="Ellipse_76" data-name="Ellipse 76" cx="3.041" cy="3.041" r="3.041" transform="translate(266.289 157.139)" fill="#68627c"/>
    <circle id="Ellipse_77" data-name="Ellipse 77" cx="0.877" cy="0.877" r="0.877" transform="translate(363.647 157.607)" fill="#68627c"/>
    <circle id="Ellipse_78" data-name="Ellipse 78" cx="1.228" cy="1.228" r="1.228" transform="translate(362.946 150.239)" fill="#68627c"/>
    <circle id="Ellipse_79" data-name="Ellipse 79" cx="3.333" cy="3.333" r="3.333" transform="translate(374.407 156.437)" fill="#68627c"/>
    <circle id="Ellipse_80" data-name="Ellipse 80" cx="2.748" cy="2.748" r="2.748" transform="translate(376.319 119.717) rotate(-50.942)" fill="#68627c"/>
    <g id="Group_176" data-name="Group 176" transform="translate(176.599 50.72)">
      <g id="Group_150" data-name="Group 150" transform="translate(0 0)">
        <path id="Path_577" data-name="Path 577" d="M326.762,168.435c-15.9-8.3-21.518-29.061-12.513-46.428s29.237-24.734,45.2-16.431c15.9,8.3,21.518,29.061,12.513,46.428a41.255,41.255,0,0,1-3.625,5.73,52.055,52.055,0,0,0-12.747-15.9,63.185,63.185,0,0,0-7.6-5.555c-.526,1.637-1.111,3.333-1.637,4.97a41.184,41.184,0,0,1,5.73,4.912,42.247,42.247,0,0,1,7.719,11.168,42.806,42.806,0,0,1,2.456,6.666C352.081,172.236,338.34,174.458,326.762,168.435Z" transform="translate(-309.697 -101.836)" fill="#fff"/>
        <path id="Path_578" data-name="Path 578" d="M340.556,171.887a30.535,30.535,0,0,1-14.092-3.391c-16.022-8.362-21.694-29.354-12.63-46.837a37.256,37.256,0,0,1,20.173-18.01,31.285,31.285,0,0,1,25.436,1.4c16.022,8.362,21.694,29.354,12.63,46.837a39.742,39.742,0,0,1-3.684,5.73l-.292.351-.234-.409a49.76,49.76,0,0,0-3.158-5.38,53.708,53.708,0,0,0-9.473-10.467,59.236,59.236,0,0,0-7.251-5.321l-1.462,4.386a44.587,44.587,0,0,1,5.613,4.853,40.857,40.857,0,0,1,10.233,17.951l.058.175-.175.117A34.236,34.236,0,0,1,340.556,171.887ZM326.7,167.969c10.935,5.672,24.676,3.976,35.026-4.327a40.345,40.345,0,0,0-2.4-6.432,40.835,40.835,0,0,0-13.39-16.022l-.175-.117,1.813-5.5.292.175a59.425,59.425,0,0,1,7.66,5.555,56.941,56.941,0,0,1,9.59,10.584,39.258,39.258,0,0,1,2.982,5.029,38.609,38.609,0,0,0,3.333-5.321c8.946-17.191,3.391-37.832-12.4-46.019a30.63,30.63,0,0,0-24.968-1.345,36.467,36.467,0,0,0-19.823,17.718c-8.83,17.191-3.275,37.832,12.455,46.019Z" transform="translate(-309.515 -101.605)" fill="#444151"/>
      </g>
      <g id="Group_151" data-name="Group 151" transform="translate(2.301 2.425)">
        <path id="Path_579" data-name="Path 579" d="M329.435,168.054c-14.911-7.719-20.115-27.19-11.695-43.446s27.366-23.156,42.276-15.379c14.911,7.719,20.115,27.19,11.695,43.446a36.207,36.207,0,0,1-2.865,4.619,38.7,38.7,0,0,0-2.105-3.391,53.667,53.667,0,0,0-9.531-10.525,63.185,63.185,0,0,0-7.6-5.555c-.526,1.637-1.111,3.333-1.637,4.97a41.185,41.185,0,0,1,5.73,4.912,42.248,42.248,0,0,1,7.719,11.168,34.526,34.526,0,0,1,1.813,4.5C353.643,171.5,340.428,173.784,329.435,168.054Z" transform="translate(-313.559 -105.868)" fill="#fff"/>
        <path id="Path_580" data-name="Path 580" d="M342.424,171.212a28.549,28.549,0,0,1-27.833-21.752,35.516,35.516,0,0,1,21.694-41.809,28.8,28.8,0,0,1,38.359,19.881,34.7,34.7,0,0,1-2.924,25.027,43.651,43.651,0,0,1-2.865,4.678l-.117.175-.117-.175c-.7-1.169-1.345-2.28-2.105-3.391a55.3,55.3,0,0,0-9.473-10.525,62.04,62.04,0,0,0-7.426-5.438l-1.52,4.678A41.6,41.6,0,0,1,361.486,158.7a42.583,42.583,0,0,1,1.813,4.5l.058.117-.058.058A32.9,32.9,0,0,1,342.424,171.212Zm-13.04-3.391c10.584,5.5,23.74,3.684,33.505-4.619q-.789-2.28-1.754-4.386a40.835,40.835,0,0,0-13.39-16.022l-.059-.058,1.7-5.263.175.117a55.073,55.073,0,0,1,7.6,5.555,53.981,53.981,0,0,1,9.531,10.584c.7,1.053,1.345,2.105,1.988,3.216a34.993,34.993,0,0,0,2.748-4.444,34.066,34.066,0,0,0,2.865-24.793A28.483,28.483,0,0,0,336.342,108a34.511,34.511,0,0,0-18.653,16.607,34.066,34.066,0,0,0-2.865,24.793,29,29,0,0,0,14.56,18.419Z" transform="translate(-313.45 -105.751)" fill="#444151"/>
      </g>
      <g id="Group_152" data-name="Group 152" transform="translate(39.87 28.291)">
        <path id="Path_581" data-name="Path 581" d="M393.337,172.333a53.669,53.669,0,0,0-9.531-10.525,61.558,61.558,0,0,0-5.906-4.444h0c.292-1.579,2.865-1.52,8.3-3.567a58.082,58.082,0,0,1,9.473-3.1c1.637-.351,2.807-.468,3.684.175,1.7,1.286,1.053,4.561.936,5.146-.526,2.339-1.7,3.216-2.807,5.029-3.45,5.38-.877,10.116-3.275,11.4a3.3,3.3,0,0,1-.7.234A.612.612,0,0,0,393.337,172.333Z" transform="translate(-377.783 -150.163)" fill="#fff"/>
        <path id="Path_582" data-name="Path 582" d="M393.371,172.507l-.234-.292a55.305,55.305,0,0,0-9.473-10.525,50.267,50.267,0,0,0-5.906-4.444l-.058-.058v-.117c.234-1.111,1.4-1.462,3.742-2.164,1.228-.351,2.748-.819,4.678-1.52.643-.234,1.228-.468,1.871-.7a48.067,48.067,0,0,1,7.66-2.4c1.579-.351,2.865-.526,3.8.234,1.7,1.286,1.169,4.386.936,5.263a8.412,8.412,0,0,1-1.871,3.684c-.292.409-.643.877-.936,1.345a14.5,14.5,0,0,0-2.047,7.66c-.058,1.754-.117,3.158-1.345,3.8a2.9,2.9,0,0,1-.76.234Zm0-.468.117.175c.234-.058.409-.117.585-.175,1.052-.526,1.111-1.813,1.169-3.567a13.813,13.813,0,0,1,2.105-7.777,13.406,13.406,0,0,1,.994-1.345,8.246,8.246,0,0,0,1.813-3.567c.117-.643.7-3.8-.877-4.97-.877-.643-2.105-.468-3.567-.175a41.948,41.948,0,0,0-7.6,2.4c-.643.234-1.228.468-1.871.7-1.93.7-3.45,1.169-4.678,1.52-2.164.643-3.275.994-3.508,1.871a54.923,54.923,0,0,1,5.847,4.444,53.706,53.706,0,0,1,9.473,10.467Z" transform="translate(-377.7 -149.987)" fill="#444151"/>
      </g>
      <g id="Group_153" data-name="Group 153" transform="translate(36.64 39.233)">
        <path id="Path_583" data-name="Path 583" d="M378.1,173.895a42.248,42.248,0,0,1,7.719,11.168,26.9,26.9,0,0,1,1.286,3.1,11.872,11.872,0,0,1-2.69,1.4c-.994.351-3.45,1.286-5.672.175-1.345-.643-2.28-1.93-3.976-8.362-1.228-4.619-2.631-10-2.222-12.279A44.23,44.23,0,0,1,378.1,173.895Z" transform="translate(-372.301 -168.866)" fill="#fff"/>
        <path id="Path_584" data-name="Path 584" d="M380.961,190.277a5.249,5.249,0,0,1-2.4-.526c-1.462-.7-2.4-2.105-4.093-8.479-1.228-4.736-2.631-10.057-2.222-12.338l.058-.234.175.117a38.928,38.928,0,0,1,5.5,4.795,41.292,41.292,0,0,1,7.719,11.227,28.8,28.8,0,0,1,1.286,3.1l.058.117-.117.058a11.871,11.871,0,0,1-2.69,1.4A7.9,7.9,0,0,1,380.961,190.277Zm-8.42-21.05c-.292,2.339,1.111,7.66,2.222,11.929,1.637,6.2,2.573,7.6,3.918,8.3,2.105,1.053,4.5.175,5.555-.234a10.879,10.879,0,0,0,2.573-1.345c-.409-.994-.819-2.047-1.286-2.982a41.414,41.414,0,0,0-7.66-11.11h0A44.573,44.573,0,0,0,372.541,169.226Z" transform="translate(-372.176 -168.7)" fill="#444151"/>
      </g>
      <g id="Group_154" data-name="Group 154" transform="translate(6.393 33.831)">
        <path id="Path_585" data-name="Path 585" d="M348.085,161.265c-.936-1.52-4.327-.234-10.35-.058a48.1,48.1,0,0,1-13.449-1.462,2.471,2.471,0,0,0-3.041,1.93,20.038,20.038,0,0,0-.234,7.66c1.169,7.017,5.964,11.344,8.128,13.04a2.246,2.246,0,0,0,1.462.526,7.456,7.456,0,0,0,1.111-.058c3.8-.585,5.672-4.619,8.537-9.239C345.57,164.949,349.079,162.9,348.085,161.265Z" transform="translate(-320.572 -159.548)" fill="#fff"/>
        <path id="Path_586" data-name="Path 586" d="M330.536,182.991h-.117a2.6,2.6,0,0,1-1.52-.585,21.665,21.665,0,0,1-8.186-13.157,20.257,20.257,0,0,1,.234-7.719,2.609,2.609,0,0,1,1.228-1.7,2.751,2.751,0,0,1,2.047-.292A49.944,49.944,0,0,0,337.67,161c2.105-.058,3.918-.292,5.38-.468,2.748-.292,4.444-.526,5.087.526.585.994-.234,1.988-2.047,4.269a72.9,72.9,0,0,0-5.847,8.245c-.409.643-.76,1.286-1.111,1.871-2.339,3.859-4.152,6.9-7.485,7.426A3.788,3.788,0,0,1,330.536,182.991Zm-7.017-23.214a2.3,2.3,0,0,0-1.228.351,2.444,2.444,0,0,0-1.111,1.52,19.624,19.624,0,0,0-.234,7.6c1.111,6.666,5.555,10.993,8.069,12.981a2.951,2.951,0,0,0,1.345.526,7.077,7.077,0,0,0,1.111-.058c3.216-.526,5.029-3.508,7.309-7.309.351-.585.76-1.228,1.111-1.871a71.736,71.736,0,0,1,5.906-8.245c1.7-2.164,2.514-3.158,1.988-3.918h0c-.526-.877-2.164-.7-4.795-.409-1.462.175-3.275.351-5.438.468a48.113,48.113,0,0,1-13.507-1.462C323.929,159.777,323.695,159.777,323.519,159.777Z" transform="translate(-320.449 -159.462)" fill="#444151"/>
      </g>
      <g id="Group_155" data-name="Group 155" transform="translate(8.221 10.652)">
        <path id="Path_587" data-name="Path 587" d="M349.64,141.924c-1.111.175-2.69.351-4.619.526a57.219,57.219,0,0,1-10.525.234,34.1,34.1,0,0,1-7.543-1.579,4.616,4.616,0,0,1-3.1-3.508h0c-.585-3.567,2.865-4.736,5.906-11.519.994-2.222,1.4-3.859,3.158-4.912a5.162,5.162,0,0,1,4.093-.7c2.4.877,3.041,4.5,3.45,6.14C341.279,130.346,343.5,135.609,349.64,141.924Z" transform="translate(-323.663 -120.009)" fill="#fff"/>
        <path id="Path_588" data-name="Path 588" d="M338.091,142.789c-1.228,0-2.456-.058-3.742-.175a33.988,33.988,0,0,1-7.543-1.579,4.657,4.657,0,0,1-3.158-3.625c-.351-2.105.585-3.333,2.047-5.263a32.692,32.692,0,0,0,3.859-6.374c.175-.409.351-.76.468-1.111.7-1.637,1.228-2.982,2.748-3.918a5.133,5.133,0,0,1,4.21-.7c2.28.877,3.041,4.152,3.45,5.906l.059.409c1.169,5.029,4.269,10.174,9.239,15.262l.175.234-.292.058c-1.52.234-3.1.409-4.619.526C342.652,142.614,340.43,142.789,338.091,142.789Zm-2.4-22.571a5.736,5.736,0,0,0-2.807.877c-1.4.877-1.93,2.105-2.631,3.742-.175.351-.292.7-.468,1.111a30.53,30.53,0,0,1-3.918,6.432c-1.4,1.871-2.339,3.1-1.988,5.029a4.416,4.416,0,0,0,2.982,3.391,33.493,33.493,0,0,0,7.485,1.579,52.4,52.4,0,0,0,10.525-.234c1.462-.117,2.924-.292,4.327-.468-4.853-5.029-7.894-10.174-9.063-15.145l-.058-.409c-.409-1.7-1.111-4.853-3.216-5.672A2.787,2.787,0,0,0,335.693,120.218Z" transform="translate(-323.574 -119.821)" fill="#444151"/>
      </g>
      <g id="Group_156" data-name="Group 156" transform="translate(26.911 6.089)">
        <path id="Path_589" data-name="Path 589" d="M365.1,137.779c-1.169-.058-2.164-1.286-4.152-3.8a23,23,0,0,1-3.1-5.2c-.936-2.105-3.1-7.309-1.754-12.747.468-1.871,1.052-2.631,1.637-3.041,1.228-.877,2.4-.409,5.438-.292,3.567.117,3.567-.468,6.841-.234,2.807.175,4.853.351,5.613,1.637.819,1.4-.175,3.391-.585,4.327C369.135,130.47,368.258,137.955,365.1,137.779Z" transform="translate(-355.591 -112.178)" fill="#fff"/>
        <path id="Path_590" data-name="Path 590" d="M365.164,137.736h-.117c-1.228-.058-2.222-1.345-4.21-3.859a23.121,23.121,0,0,1-3.1-5.263c-.877-1.988-3.158-7.192-1.754-12.864.468-2.047,1.111-2.69,1.7-3.1.936-.643,1.813-.585,3.391-.468a20.639,20.639,0,0,0,2.105.117,26.634,26.634,0,0,0,3.45-.117,14.236,14.236,0,0,1,3.391-.117c2.865.175,4.912.351,5.73,1.7.877,1.462-.117,3.45-.585,4.444-2.222,4.561-3.684,8.479-4.912,11.578C368.263,134.929,367.152,137.736,365.164,137.736Zm-.117-.292h.117c1.813,0,2.865-2.748,4.736-7.66,1.169-3.1,2.69-7.017,4.912-11.578.468-.936,1.4-2.865.585-4.21-.76-1.228-2.748-1.4-5.5-1.579a18.7,18.7,0,0,0-3.333.058,15.134,15.134,0,0,1-3.508.117c-.819-.058-1.52-.117-2.105-.117-1.52-.117-2.339-.175-3.216.409-.526.351-1.111.994-1.579,2.924-1.345,5.555.936,10.759,1.754,12.689a24.024,24.024,0,0,0,3.1,5.2c1.93,2.456,2.924,3.684,4.035,3.742Z" transform="translate(-355.538 -112.017)" fill="#444151"/>
      </g>
      <g id="Group_157" data-name="Group 157" transform="translate(38.512 12.208)">
        <path id="Path_591" data-name="Path 591" d="M375.577,143.627c-.351-.409,2.222-2.164,4.152-5.789,1.813-3.391.936-4.5,2.807-8.713,1.345-2.924,2.631-5.906,5.146-6.374,2.456-.468,4.736,1.637,5.029,1.93,1.053.994.936,1.52,2.456,4.327,1.988,3.567,2.924,3.976,2.748,5.029-.175.936-1.111,1.7-6.724,3.625-6.081,2.105-6.958,1.93-10.116,3.391C377.741,142.575,375.928,143.978,375.577,143.627Z" transform="translate(-375.447 -122.566)" fill="#fff"/>
        <path id="Path_592" data-name="Path 592" d="M375.683,143.777a.3.3,0,0,1-.234-.117h0c-.234-.292.117-.7.877-1.462a20.373,20.373,0,0,0,3.275-4.5A13.579,13.579,0,0,0,381,133.6a19.721,19.721,0,0,1,1.462-4.619c1.286-2.924,2.69-5.964,5.263-6.432,2.456-.468,4.736,1.579,5.146,1.988a6.2,6.2,0,0,1,1.286,1.93,23.8,23.8,0,0,0,1.228,2.4,25.855,25.855,0,0,0,1.93,3.1c.643.936.936,1.345.819,2.047-.175,1.053-1.169,1.754-6.841,3.742-2.69.936-4.385,1.4-5.672,1.813a26.75,26.75,0,0,0-4.386,1.579,31.257,31.257,0,0,0-3.508,1.813A11.206,11.206,0,0,1,375.683,143.777Zm-.058-.351a5.623,5.623,0,0,0,1.813-.819c.877-.468,2.047-1.111,3.508-1.813a27.265,27.265,0,0,1,4.444-1.579c1.345-.409,2.982-.877,5.672-1.813,5.5-1.93,6.491-2.631,6.666-3.508.117-.585-.117-.877-.76-1.813-.468-.7-1.111-1.637-1.988-3.158-.585-1.111-.936-1.871-1.228-2.4a5.214,5.214,0,0,0-1.228-1.871c-.409-.409-2.573-2.339-4.912-1.93-2.456.468-3.8,3.391-5.087,6.257a17.314,17.314,0,0,0-1.4,4.561,13.512,13.512,0,0,1-1.4,4.21,22.452,22.452,0,0,1-3.333,4.561A13.1,13.1,0,0,0,375.625,143.426Z" transform="translate(-375.378 -122.482)" fill="#444151"/>
      </g>
      <g id="Group_158" data-name="Group 158" transform="translate(20.427 37.524)">
        <path id="Path_593" data-name="Path 593" d="M359.408,166.1c-.643-.117-1.052,2.339-3.508,6.608a55.6,55.6,0,0,1-5.263,7.368c-4.678,5.906-6.023,6.491-5.847,8.186.468,3.625,7.426,5.321,8.479,5.555,3.8.936,10.116,1.169,11.461-1.637.877-1.871-1.052-3.508-2.807-7.66C357.888,175.1,360.694,166.273,359.408,166.1Z" transform="translate(-344.584 -165.908)" fill="#fff"/>
        <path id="Path_594" data-name="Path 594" d="M358.454,194.442a25.115,25.115,0,0,1-5.38-.643c-2.456-.585-8.186-2.339-8.6-5.73-.175-1.169.409-1.813,2.164-3.859.877-1.053,2.105-2.456,3.684-4.444a61.408,61.408,0,0,0,5.263-7.309,39.362,39.362,0,0,0,2.4-4.853c.585-1.286.819-1.93,1.286-1.813h0c.585.058.526,1.111.468,3.216-.175,3.45-.409,9.3,2.164,15.379a32.482,32.482,0,0,0,1.754,3.508c.994,1.813,1.7,2.982,1.052,4.269C363.892,193.858,361.261,194.442,358.454,194.442Zm.76-28.36c-.234,0-.526.7-.936,1.637a35.64,35.64,0,0,1-2.4,4.853,57.245,57.245,0,0,1-5.263,7.368c-1.579,2.047-2.807,3.45-3.684,4.444-1.7,1.988-2.222,2.573-2.105,3.625.409,3.275,6.491,5.029,8.362,5.438,3.918.936,10,1.111,11.344-1.52.526-1.111-.058-2.222-1.052-3.976a32.481,32.481,0,0,1-1.754-3.508c-2.631-6.14-2.339-11.987-2.222-15.5,0-1.462.058-2.807-.292-2.865Z" transform="translate(-344.449 -165.777)" fill="#444151"/>
      </g>
      <g id="Group_159" data-name="Group 159" transform="translate(19.403 36.119)">
        <path id="Path_595" data-name="Path 595" d="M354.026,163.581c-.058-.175-1.4.585-3.742.7-2.514.175-3.508-.526-5.555.058-.175.058-1.988.643-1.93,1.228s1.871.819,1.988.877a9.284,9.284,0,0,0,4.678-.819C351.395,164.926,354.143,163.815,354.026,163.581Z" transform="translate(-342.739 -163.45)" fill="#fff"/>
        <path id="Path_596" data-name="Path 596" d="M345.681,166.547a4.426,4.426,0,0,1-.877-.058c-.643-.117-2.105-.351-2.105-.994-.058-.643,1.4-1.169,2.047-1.345a7.135,7.135,0,0,1,3.1-.175,15.319,15.319,0,0,0,2.456.117,12.635,12.635,0,0,0,3.158-.585c.526-.175.7-.175.76,0h0c.175.468-3.216,1.7-4.678,2.222A14.3,14.3,0,0,1,345.681,166.547Zm.76-2.4a6.2,6.2,0,0,0-1.7.234c-.936.292-1.871.76-1.813,1.053,0,.292.994.585,1.871.76a9.227,9.227,0,0,0,4.561-.819,40.412,40.412,0,0,0,3.976-1.637,16.239,16.239,0,0,1-3.1.585,10.949,10.949,0,0,1-2.514-.117C347.318,164.208,346.909,164.15,346.441,164.15Z" transform="translate(-342.697 -163.375)" fill="#444151"/>
      </g>
      <g id="Group_160" data-name="Group 160" transform="translate(13.168 39.269)">
        <path id="Path_597" data-name="Path 597" d="M345.245,169.083c-.117-.234-1.871,1.345-5.2,2.339-2.456.7-3.567.468-5.38,1.579-1.228.76-2.514,1.988-2.28,2.573.234.526,2.047.175,2.573.117a13.943,13.943,0,0,0,5.555-2.69C341.97,171.89,345.42,169.376,345.245,169.083Z" transform="translate(-332.167 -168.886)" fill="#fff"/>
        <path id="Path_598" data-name="Path 598" d="M333.126,175.86q-.877,0-1.053-.351c-.292-.7,1.169-1.988,2.339-2.748a7.9,7.9,0,0,1,3.158-1.111,14.787,14.787,0,0,0,2.222-.526,18.822,18.822,0,0,0,4.386-1.988c.585-.351.819-.468.936-.292h0c.058.117.292.468-4.795,4.035a13.91,13.91,0,0,1-5.613,2.748A5.435,5.435,0,0,1,333.126,175.86Zm11.636-6.608-.351.175a17.9,17.9,0,0,1-4.5,1.988,17.188,17.188,0,0,1-2.28.526,7.518,7.518,0,0,0-3.1,1.053c-1.345.819-2.4,1.988-2.222,2.339.058.117.409.409,2.4,0a13.692,13.692,0,0,0,5.5-2.69A41.374,41.374,0,0,0,344.762,169.252Z" transform="translate(-332.035 -168.762)" fill="#444151"/>
      </g>
      <g id="Group_161" data-name="Group 161" transform="translate(26.11 38.838)">
        <path id="Path_599" data-name="Path 599" d="M357.4,168.283c-.234-.234-2.631,1.228-2.924,3.333-.058.351-.058.936.117.994.234.058.585-.643,1.813-2.631C357.34,168.4,357.457,168.283,357.4,168.283Z" transform="translate(-354.281 -168.122)" fill="#fff"/>
        <path id="Path_600" data-name="Path 600" d="M354.479,172.688h-.059c-.351-.117-.234-.936-.234-1.169a5.144,5.144,0,0,1,2.807-3.45.368.368,0,0,1,.351,0h0c.117.117.058.175-.292.76a9.755,9.755,0,0,0-.7,1.111c-.234.409-.468.76-.643,1.111C354.947,172.279,354.713,172.688,354.479,172.688Zm2.573-4.386a4.732,4.732,0,0,0-2.573,3.158,2.08,2.08,0,0,0,0,.877,13.178,13.178,0,0,0,.994-1.462c.175-.292.409-.7.643-1.111a7.5,7.5,0,0,0,.7-1.169A.584.584,0,0,0,357.052,168.3Z" transform="translate(-354.168 -168.025)" fill="#444151"/>
      </g>
      <g id="Group_162" data-name="Group 162" transform="translate(8.214 37.813)">
        <path id="Path_601" data-name="Path 601" d="M329.842,168.536c.117-.585-2.982-2.748-4.795-1.579-.994.643-1.462,2.164-1.052,2.573.292.292.936-.175,2.69-.526C328.79,168.536,329.784,168.829,329.842,168.536Z" transform="translate(-323.681 -166.414)" fill="#fff"/>
        <path id="Path_602" data-name="Path 602" d="M324.111,169.621a.354.354,0,0,1-.351-.175.8.8,0,0,1-.175-.76,2.95,2.95,0,0,1,1.286-2.047c1.4-.877,3.275,0,4.21.7.292.175.877.7.819,1.053h0c-.058.234-.351.234-.877.292a12.107,12.107,0,0,0-2.456.292,14.952,14.952,0,0,0-1.579.409A1.964,1.964,0,0,1,324.111,169.621Zm2.047-2.982a2.216,2.216,0,0,0-2.28,2.105c-.059.234,0,.468.117.526.117.117.351.058.936-.117a11.9,11.9,0,0,1,1.579-.409,13.021,13.021,0,0,1,2.514-.292,1.313,1.313,0,0,0,.585-.058c0-.058-.117-.351-.7-.76A4.785,4.785,0,0,0,326.157,166.639Z" transform="translate(-323.563 -166.271)" fill="#444151"/>
      </g>
      <g id="Group_163" data-name="Group 163" transform="translate(32.16 47.946)">
        <path id="Path_603" data-name="Path 603" d="M367,183.8c.468.117-1.228,3.391.117,7.075.468,1.286,1.228,2.28.76,3.391-.292.76-1.169,1.52-1.813,1.4-1.228-.292-1.754-3.918-1.286-6.783C365.248,186.078,366.593,183.68,367,183.8Z" transform="translate(-364.554 -183.68)" fill="#fff"/>
        <path id="Path_604" data-name="Path 604" d="M366.26,195.763h-.175c-1.345-.292-1.871-3.976-1.4-6.958.351-2.514,1.52-4.795,2.105-5.146a.527.527,0,0,1,.292-.058h0c.292.058.234.468.059,1.228a10.776,10.776,0,0,0,.175,5.906l.351.877a3.285,3.285,0,0,1,.409,2.631A2.551,2.551,0,0,1,366.26,195.763Zm.643-11.87c-.351.117-1.579,2.164-1.988,4.97-.468,3.041.175,6.374,1.169,6.608.585.117,1.345-.585,1.637-1.286a2.977,2.977,0,0,0-.409-2.4l-.351-.877a10.325,10.325,0,0,1-.175-6.081C366.845,184.419,366.9,184.009,366.9,183.892Z" transform="translate(-364.514 -183.6)" fill="#444151"/>
      </g>
      <g id="Group_164" data-name="Group 164" transform="translate(20.048 29.76)">
        <path id="Path_605" data-name="Path 605" d="M353.747,154.644c0,.292-2.456.7-4.912.526-2.164-.175-4.795-.936-4.736-1.52,0-.468,1.4-.7,1.579-.7,1.579-.292,2.514.351,4.912,1.053C352.695,154.469,353.747,154.469,353.747,154.644Z" transform="translate(-343.924 -152.656)" fill="#fff"/>
        <path id="Path_606" data-name="Path 606" d="M350.174,155.189a12.223,12.223,0,0,1-1.462-.058c-1.7-.175-4.912-.819-4.912-1.7,0-.468,1.053-.76,1.7-.877a5.769,5.769,0,0,1,3.1.468c.526.175,1.111.351,1.871.585,1.111.292,1.871.409,2.456.526.643.117.877.117.877.351,0,.058,0,.117-.117.175A7.864,7.864,0,0,1,350.174,155.189Zm-3.918-2.4a2.847,2.847,0,0,0-.7.058,2.272,2.272,0,0,0-1.462.585c0,.409,2.222,1.169,4.619,1.4a12.86,12.86,0,0,0,4.678-.351c-.117-.058-.351-.058-.526-.117a19.146,19.146,0,0,1-2.456-.526,18.247,18.247,0,0,1-1.871-.585A8.8,8.8,0,0,0,346.256,152.792Z" transform="translate(-343.8 -152.499)" fill="#444151"/>
      </g>
      <g id="Group_165" data-name="Group 165" transform="translate(19.872 18.124)">
        <path id="Path_607" data-name="Path 607" d="M346.273,141.336c-.409.175-2.573-2.514-2.573-5.672,0-1.286.409-2.865.819-2.865.585-.058,1.111,2.456,1.169,2.748.175.7.117.994.351,2.865C346.273,141.044,346.39,141.336,346.273,141.336Z" transform="translate(-343.583 -132.682)" fill="#fff"/>
        <path id="Path_608" data-name="Path 608" d="M346.131,141.43a.988.988,0,0,1-.292-.117,7.9,7.9,0,0,1-2.339-5.672c0-1.228.351-2.982.936-3.041h0c.585,0,1.111,1.813,1.345,2.865.117.526.117.819.234,1.637,0,.292.058.7.117,1.228.058.877.175,1.52.175,1.93.117.936.117,1.053-.059,1.111h0C346.19,141.43,346.19,141.43,346.131,141.43Zm-1.637-8.537h0c-.234,0-.7,1.286-.7,2.748a8.307,8.307,0,0,0,1.988,5.263c.175.117.234.234.292.234,0-.117-.058-.409-.058-.819-.058-.409-.117-1.053-.175-1.988-.058-.526-.058-.936-.117-1.228a7.6,7.6,0,0,0-.234-1.579C345.137,133.886,344.669,132.892,344.494,132.892Z" transform="translate(-343.5 -132.6)" fill="#444151"/>
      </g>
      <g id="Group_166" data-name="Group 166" transform="translate(32.382 20.265)">
        <path id="Path_609" data-name="Path 609" d="M368.915,146.515c-.234.117-1.52-1.579-2.514-3.275-.877-1.52-1.462-2.631-1.4-4.035.058-1.462.819-2.865,1.286-2.807.234.058.292.468.76,3.1.351,1.754.468,2.69.526,2.924C368.272,145.111,369.149,146.4,368.915,146.515Z" transform="translate(-364.935 -136.317)" fill="#fff"/>
        <path id="Path_610" data-name="Path 610" d="M368.874,146.634h-.058c-.409-.117-1.7-1.871-2.514-3.333a7.66,7.66,0,0,1-1.4-4.093,4.346,4.346,0,0,1,1.053-2.807c.117-.117.234-.175.351-.117.351.058.351.292.877,2.982l.058.292c.292,1.754.468,2.69.526,2.924a16.99,16.99,0,0,0,1.053,3.216c.234.643.351.877.175.994h0C368.932,146.634,368.932,146.634,368.874,146.634Zm-2.631-10.116a.181.181,0,0,0-.117.058,4.286,4.286,0,0,0-.936,2.631c-.058,1.4.526,2.456,1.345,3.976a14.692,14.692,0,0,0,2.222,3.1,3.692,3.692,0,0,0-.234-.526,17.938,17.938,0,0,1-1.053-3.275c-.058-.292-.234-1.169-.526-2.924l-.058-.292a10.112,10.112,0,0,0-.643-2.748Z" transform="translate(-364.894 -136.261)" fill="#444151"/>
      </g>
      <g id="Group_167" data-name="Group 167" transform="translate(36.346 23.427)">
        <path id="Path_611" data-name="Path 611" d="M372.5,147.1c-.409-.058-.877-1.93-.292-3.508.351-.877.994-1.813,1.345-1.7.409.117.175,1.871-.058,2.924C373.433,145.051,372.965,147.156,372.5,147.1Z" transform="translate(-371.779 -141.758)" fill="#fff"/>
        <path id="Path_612" data-name="Path 612" d="M372.39,147.125h0c-.117,0-.234-.117-.351-.234a4.5,4.5,0,0,1-.058-3.45c.292-.819,1.053-1.93,1.52-1.754.7.234.059,2.924.059,3.041C373.15,146.365,372.8,147.125,372.39,147.125Zm.994-5.146a2.846,2.846,0,0,0-1.111,1.579,4.45,4.45,0,0,0,.058,3.216c.058.117.117.117.117.117v0h0c.117,0,.468-.7.819-2.164.292-1.462.351-2.69.117-2.748Z" transform="translate(-371.672 -141.668)" fill="#444151"/>
      </g>
      <g id="Group_168" data-name="Group 168" transform="translate(37.58 9.643)">
        <path id="Path_613" data-name="Path 613" d="M374.782,125.9c-.526,0-1.52-4.035.409-6.374A2.779,2.779,0,0,1,377.3,118.3a1.725,1.725,0,0,1,1.579,1.228c.058.76-1.111.994-2.164,2.047C374.841,123.5,375.133,125.958,374.782,125.9Z" transform="translate(-373.895 -118.179)" fill="#fff"/>
        <path id="Path_614" data-name="Path 614" d="M374.67,125.992h0c-.175,0-.292-.175-.468-.468a6.681,6.681,0,0,1,.76-6.14,2.906,2.906,0,0,1,2.222-1.286,1.819,1.819,0,0,1,1.7,1.4c0,.526-.409.819-.994,1.169a4.589,4.589,0,0,0-1.228.994,6.394,6.394,0,0,0-1.637,3.508C374.962,125.641,374.9,125.992,374.67,125.992Zm2.339-7.6a2.759,2.759,0,0,0-1.871,1.169,6.315,6.315,0,0,0-.936,5.2,2.194,2.194,0,0,0,.351.877,5.058,5.058,0,0,0,.117-.585,6.55,6.55,0,0,1,1.7-3.684,7.687,7.687,0,0,1,1.286-.994c.585-.351.877-.585.819-.936,0-.468-.7-1.053-1.4-1.111C377.126,118.391,377.067,118.391,377.009,118.391Z" transform="translate(-373.783 -118.096)" fill="#444151"/>
      </g>
      <g id="Group_169" data-name="Group 169" transform="translate(42.034 33.253)">
        <path id="Path_615" data-name="Path 615" d="M381.6,160.414c0-.117.292-.175,2.69-.936,2.047-.643,2.807-.936,3.625-.585.351.175.877.526.819.819-.059.468-1.462.643-2.748.76C384.29,160.648,381.658,160.765,381.6,160.414Z" transform="translate(-381.483 -158.586)" fill="#fff"/>
        <path id="Path_616" data-name="Path 616" d="M383.1,160.711c-.877,0-1.7-.058-1.7-.351h0c0-.234.058-.234,1.286-.643.351-.117.819-.292,1.462-.468l.292-.117c1.813-.585,2.573-.877,3.391-.468.351.175.994.585.936.994-.117.585-1.228.76-2.865.877C385.669,160.536,384.265,160.711,383.1,160.711Zm-1.345-.409a19.829,19.829,0,0,0,4.152-.058c.936-.117,2.514-.292,2.631-.643,0-.175-.351-.468-.76-.7-.7-.292-1.4-.117-3.158.468l-.292.117c-.585.175-1.111.351-1.462.468C382.277,160.126,381.926,160.243,381.751,160.3Z" transform="translate(-381.4 -158.474)" fill="#444151"/>
      </g>
      <g id="Group_170" data-name="Group 170" transform="translate(43.819 36.237)">
        <path id="Path_617" data-name="Path 617" d="M384.6,163.822c.117-.292,1.871.058,2.807.351a17.392,17.392,0,0,1,3.391,1.462c2.164,1.111,2.164,1.345,2.105,1.462-.058.351-1.053.468-1.754.409-1.169-.058-1.813-.585-3.45-1.637C385.358,164.407,384.539,164.056,384.6,163.822Z" transform="translate(-384.512 -163.633)" fill="#fff"/>
        <path id="Path_618" data-name="Path 618" d="M391.439,167.625h-.292a5.843,5.843,0,0,1-2.982-1.286l-.526-.351c-.877-.585-1.579-.936-2.047-1.228-.994-.585-1.228-.7-1.111-.994h0c.175-.468,2.339.058,2.982.234a19.743,19.743,0,0,1,3.391,1.462c2.28,1.169,2.222,1.462,2.222,1.637C392.959,167.508,392.023,167.625,391.439,167.625Zm-6.724-3.8a5.762,5.762,0,0,0,.994.643c.468.292,1.169.7,2.047,1.286l.526.351a5.376,5.376,0,0,0,2.865,1.228c.819.058,1.579-.117,1.579-.292,0-.058-.175-.292-2.047-1.286a16.551,16.551,0,0,0-3.333-1.462A8.94,8.94,0,0,0,384.714,163.824Z" transform="translate(-384.453 -163.577)" fill="#444151"/>
      </g>
      <g id="Group_171" data-name="Group 171" transform="translate(50.337 41.444)">
        <path id="Path_619" data-name="Path 619" d="M395.89,172.89c-.175.175,1.228,2.28,3.45,3.567.292.175,2.164,1.286,2.631.819.234-.292.058-.936-.292-1.4-.526-.76-1.4-.7-2.514-1.053C397,174.176,396.065,172.714,395.89,172.89Z" transform="translate(-395.714 -172.644)" fill="#fff"/>
        <path id="Path_620" data-name="Path 620" d="M401.506,177.345a5.448,5.448,0,0,1-2.339-.936,8.861,8.861,0,0,1-3.567-3.625c0-.117,0-.175.059-.234h0c.175-.175.351,0,.643.292a7.3,7.3,0,0,0,2.807,1.637,4.871,4.871,0,0,0,.877.234,2.812,2.812,0,0,1,1.754.877c.351.526.585,1.228.234,1.579A.485.485,0,0,1,401.506,177.345Zm-5.555-4.327a10.115,10.115,0,0,0,3.333,3.216c1.286.76,2.222,1.053,2.456.819.175-.175.058-.76-.292-1.169a2.525,2.525,0,0,0-1.579-.76,6.614,6.614,0,0,1-.877-.234,7.726,7.726,0,0,1-2.924-1.7C396.068,173.077,396.009,173.018,395.951,173.018Z" transform="translate(-395.6 -172.48)" fill="#444151"/>
      </g>
      <g id="Group_172" data-name="Group 172" transform="translate(54.93 31.614)">
        <path id="Path_621" data-name="Path 621" d="M403.7,157.786c-.117-.175,1.462-1.579,3.391-1.7.76-.058,2.047.058,2.164.585.058.292-.234.7-.585.936-.936.585-1.754-.351-3.567-.117A10.634,10.634,0,0,0,403.7,157.786Z" transform="translate(-403.553 -155.839)" fill="#fff"/>
        <path id="Path_622" data-name="Path 622" d="M403.657,157.734c-.058,0-.117,0-.175-.117h0c-.058-.058,0-.117,0-.234a5.354,5.354,0,0,1,3.508-1.7c.76-.058,2.164,0,2.339.7.117.409-.292.877-.643,1.111a1.993,1.993,0,0,1-1.637.058,5.129,5.129,0,0,0-1.988-.175,3.283,3.283,0,0,0-1.111.292A.636.636,0,0,1,403.657,157.734Zm1.93-.643a5.191,5.191,0,0,1,1.52.234c.585.117.994.234,1.4,0,.351-.234.585-.585.526-.76-.117-.351-1.111-.526-2.047-.468a5.477,5.477,0,0,0-3.1,1.345,6.889,6.889,0,0,1,1.111-.234A1.156,1.156,0,0,1,405.587,157.091Z" transform="translate(-403.456 -155.671)" fill="#444151"/>
      </g>
      <g id="Group_173" data-name="Group 173" transform="translate(52.208 34.762)">
        <path id="Path_623" data-name="Path 623" d="M399.1,162.159c0-.292,2.748-.585,3.391-.643.877-.058,2.514-.234,2.573,0,.059.175-1.111.7-2.164.877C400.971,162.744,399.1,162.393,399.1,162.159Z" transform="translate(-398.925 -161.196)" fill="#fff"/>
        <path id="Path_624" data-name="Path 624" d="M401.022,162.542a4.83,4.83,0,0,1-2.105-.351c-.058-.058-.117-.117-.117-.175h0c0-.175,0-.468,3.508-.819,2.28-.234,2.69-.175,2.748.117a.215.215,0,0,1-.058.175,5.068,5.068,0,0,1-2.28.877A8.35,8.35,0,0,1,401.022,162.542Zm-1.871-.526a7.311,7.311,0,0,0,3.567.058,6.041,6.041,0,0,0,1.988-.7,16.471,16.471,0,0,0-2.339.117A12.165,12.165,0,0,0,399.151,162.016Z" transform="translate(-398.8 -161.053)" fill="#444151"/>
      </g>
      <g id="Group_174" data-name="Group 174" transform="translate(43.924 21.934)">
        <path id="Path_625" data-name="Path 625" d="M384.886,147.051c-.175-.175.819-1.345,1.813-2.28,1.286-1.228,1.988-1.345,3.742-2.514,2.631-1.754,3.742-3.275,4.152-2.982.234.175-.058,1.053-.409,1.7-.877,1.4-2.222,1.754-3.8,2.514C386.815,145.063,385.061,147.285,384.886,147.051Z" transform="translate(-384.729 -139.166)" fill="#fff"/>
        <path id="Path_626" data-name="Path 626" d="M384.789,147.176c-.058,0-.117,0-.117-.058h0c-.351-.409,1.754-2.456,1.813-2.456a8.267,8.267,0,0,1,2.222-1.579c.409-.234.936-.526,1.579-.936a25.46,25.46,0,0,0,2.807-2.164c.819-.7,1.169-.994,1.462-.819.409.292-.058,1.345-.409,1.93-.7,1.228-1.813,1.637-3.041,2.164-.292.117-.526.234-.819.351a22.493,22.493,0,0,0-4.561,2.982C385.2,146.942,384.964,147.176,384.789,147.176Zm9.531-7.835c-.175,0-.643.468-1.111.819a26.351,26.351,0,0,1-2.865,2.222c-.643.409-1.111.7-1.579.994a11.334,11.334,0,0,0-2.164,1.52,10.256,10.256,0,0,0-1.7,1.93c.117-.117.292-.234.468-.409a20,20,0,0,1,4.678-3.041c.292-.117.585-.234.819-.351a5.821,5.821,0,0,0,2.924-2.047c.526-.877.643-1.579.526-1.637Z" transform="translate(-384.633 -139.115)" fill="#444151"/>
      </g>
      <g id="Group_175" data-name="Group 175" transform="translate(45.904 20.872)">
        <path id="Path_627" data-name="Path 627" d="M389.094,141.561c.936-1.52.877-1.988,1.52-2.69.76-.819,1.93-1.345,2.105-1.111.234.234-.585,1.286-.994,1.871-1.52,2.047-3.45,3.508-3.625,3.333C388.1,142.848,388.451,142.555,389.094,141.561Z" transform="translate(-388.053 -137.468)" fill="#fff"/>
        <path id="Path_628" data-name="Path 628" d="M388.183,142.913c-.058,0-.117,0-.117-.058-.117-.117,0-.234.175-.526a7.963,7.963,0,0,0,.7-1.053h0a14.4,14.4,0,0,0,.819-1.52,4.679,4.679,0,0,1,.76-1.228,4.143,4.143,0,0,1,2.047-1.228h0a.447.447,0,0,1,.292.117c.234.292-.117.936-.936,2.047-1.462,1.988-3.333,3.45-3.742,3.45Zm4.386-5.263a3.517,3.517,0,0,0-1.813,1.111,3.9,3.9,0,0,0-.7,1.111c-.175.351-.409.819-.819,1.52h0q-.439.7-.7,1.053a15.551,15.551,0,0,0,3.158-3.158,4.986,4.986,0,0,0,.994-1.637Z" transform="translate(-388.019 -137.3)" fill="#444151"/>
      </g>
    </g>
  </g>
</svg>
