<svg xmlns="http://www.w3.org/2000/svg" width="135" height="40" viewBox="0 0 135 40">
  <defs>
    <style>
      .cls-1 {
        fill: #858585;
      }

      .cls-2, .cls-3 {
        fill: #fff;
      }

      .cls-3 {
        stroke: #fff;
        stroke-miterlimit: 10;
        stroke-width: 0.2px;
      }
    </style>
  </defs>
  <g id="гугл_плэй" data-name="гугл плэй" transform="translate(-10 -10)">
    <path id="Path_26" data-name="Path 26" class="cls-1" d="M140,50H15a5.015,5.015,0,0,1-5-5V15a5.015,5.015,0,0,1,5-5H140a5.015,5.015,0,0,1,5,5V45A5.015,5.015,0,0,1,140,50Z"/>
    <g id="лого_гугл_плэй" data-name="лого гугл плэй" transform="translate(19.9 17.069)">
      <path id="Path_36" data-name="Path 36" class="cls-2" d="M33,29.5l3.9-3.9L22.5,17.4a1.807,1.807,0,0,0-1.7-.2Z" transform="translate(-19.9 -17.069)"/>
      <path id="Path_37" data-name="Path 37" class="cls-2" d="M20.2,17.8a2.016,2.016,0,0,0-.3,1.1V41a2.133,2.133,0,0,0,.3,1.2L32.4,30Z" transform="translate(-19.9 -17.069)"/>
      <path id="Path_38" data-name="Path 38" class="cls-2" d="M33,30.6,20.9,42.7a1.9,1.9,0,0,0,1.6-.2l14.3-8.1Z" transform="translate(-19.9 -17.069)"/>
      <path id="Path_39" data-name="Path 39" class="cls-2" d="M42,28.6,37.6,26l-4,4,3.9,3.9L42,31.3C43.4,30.7,43.4,29.4,42,28.6Z" transform="translate(-19.9 -17.069)"/>
    </g>
    <g id="доступно_в" data-name="доступно в" transform="translate(51.4 16.9)">
      <path id="Path_27" data-name="Path 27" class="cls-3" d="M52.1,24.3h-.7v-2H52a2.887,2.887,0,0,0,.8-2.3V17h4v5.3h.7v2h-.7V23H52.2v1.3ZM53.5,20a4.143,4.143,0,0,1-.6,2.3h3V17.8H53.4V20Z" transform="translate(-51.4 -16.9)"/>
      <path id="Path_28" data-name="Path 28" class="cls-3" d="M63.4,22.2A3.1,3.1,0,0,1,58.1,20a3.1,3.1,0,1,1,5.3,2.2Zm-3.8-.5a2.36,2.36,0,0,0,1.6.7,1.99,1.99,0,0,0,1.6-.7,2.413,2.413,0,0,0,.7-1.7,2.06,2.06,0,0,0-.7-1.7,2.36,2.36,0,0,0-1.6-.7,1.99,1.99,0,0,0-1.6.7,2.413,2.413,0,0,0-.7,1.7A2.06,2.06,0,0,0,59.6,21.7Z" transform="translate(-51.4 -16.9)"/>
      <path id="Path_29" data-name="Path 29" class="cls-3" d="M68.2,23.1A3.073,3.073,0,0,1,65.1,20a3.073,3.073,0,0,1,3.1-3.1,2.7,2.7,0,0,1,2.2,1l-.5.5a2.136,2.136,0,0,0-1.7-.8,2.193,2.193,0,0,0-1.7.7,2.06,2.06,0,0,0-.7,1.7,2.06,2.06,0,0,0,.7,1.7,2.413,2.413,0,0,0,1.7.7,2.271,2.271,0,0,0,1.8-.9l.5.5a3.915,3.915,0,0,1-1,.8A2.768,2.768,0,0,1,68.2,23.1Z" transform="translate(-51.4 -16.9)"/>
      <path id="Path_30" data-name="Path 30" class="cls-3" d="M73.7,23h-.8V17.7H71.2V17h4.1v.7H73.6V23Z" transform="translate(-51.4 -16.9)"/>
      <path id="Path_31" data-name="Path 31" class="cls-3" d="M80.6,17l-2.3,5.1a1.566,1.566,0,0,1-1.4,1.1,1.268,1.268,0,0,1-.6-.1l.2-.7a.6.6,0,0,0,.4.1c.2,0,.3,0,.4-.1a1.381,1.381,0,0,0,.3-.4l.2-.5-2-4.4h.9l1.5,3.4h0l1.4-3.4h1Z" transform="translate(-51.4 -16.9)"/>
      <path id="Path_32" data-name="Path 32" class="cls-3" d="M81.5,23V17h4.3v6H85V17.7H82.2V23Z" transform="translate(-51.4 -16.9)"/>
      <path id="Path_33" data-name="Path 33" class="cls-3" d="M87.2,23V17H88v2.6h3V17h.8v6H91V20.3H88V23Z" transform="translate(-51.4 -16.9)"/>
      <path id="Path_34" data-name="Path 34" class="cls-3" d="M98.1,22.2A3.1,3.1,0,0,1,92.8,20,3.1,3.1,0,1,1,99,20,3.978,3.978,0,0,1,98.1,22.2Zm-3.9-.5a2.36,2.36,0,0,0,1.6.7,1.99,1.99,0,0,0,1.6-.7,2.413,2.413,0,0,0,.7-1.7,2.06,2.06,0,0,0-.7-1.7,2.36,2.36,0,0,0-1.6-.7,1.99,1.99,0,0,0-1.6.7,2.414,2.414,0,0,0,0,3.4Z" transform="translate(-51.4 -16.9)"/>
      <path id="Path_35" data-name="Path 35" class="cls-3" d="M102.1,23V17h2.2a1.707,1.707,0,0,1,1.7,1.7,2.354,2.354,0,0,1-.2.8,1.024,1.024,0,0,1-.6.5h0a1.794,1.794,0,0,1,.7.5,1.222,1.222,0,0,1,.3.9,1.656,1.656,0,0,1-.5,1.2,2.106,2.106,0,0,1-1.3.5h-2.3Zm.8-3.4h1.4a.908.908,0,0,0,.7-.3.75.75,0,0,0,0-1.2.908.908,0,0,0-.7-.3h-1.4Zm0,2.7h1.6a1.025,1.025,0,0,0,1-1,1.08,1.08,0,0,0-.3-.7.908.908,0,0,0-.7-.3H103v2Z" transform="translate(-51.4 -16.9)"/>
    </g>
    <path id="гугл_плэй-2" data-name="гугл плэй" class="cls-2" d="M78.1,31.8a4.207,4.207,0,0,0-4.3,4.3,4.268,4.268,0,0,0,4.3,4.3,4.207,4.207,0,0,0,4.3-4.3A4.149,4.149,0,0,0,78.1,31.8Zm0,6.8a2.608,2.608,0,0,1,0-5.2A2.422,2.422,0,0,1,80.5,36,2.482,2.482,0,0,1,78.1,38.6Zm-9.3-6.8a4.207,4.207,0,0,0-4.3,4.3,4.268,4.268,0,0,0,4.3,4.3,4.207,4.207,0,0,0,4.3-4.3A4.149,4.149,0,0,0,68.8,31.8Zm0,6.8a2.608,2.608,0,0,1,0-5.2A2.422,2.422,0,0,1,71.2,36,2.482,2.482,0,0,1,68.8,38.6ZM57.7,33.1v1.8H62a3.781,3.781,0,0,1-1,2.3,4.426,4.426,0,0,1-3.3,1.3A4.656,4.656,0,0,1,53,33.7a4.717,4.717,0,0,1,4.7-4.8A4.958,4.958,0,0,1,61,30.2l1.3-1.3a6.408,6.408,0,0,0-4.5-1.8,6.6,6.6,0,1,0,0,13.2,5.755,5.755,0,0,0,4.6-1.9A6.02,6.02,0,0,0,64,34.2a3.75,3.75,0,0,0-.1-1.1H57.7Zm45.4,1.4a3.885,3.885,0,0,0-3.6-2.7,4.028,4.028,0,0,0-4,4.3,4.185,4.185,0,0,0,4.2,4.3,4.1,4.1,0,0,0,3.5-1.9l-1.4-1a2.437,2.437,0,0,1-2.1,1.2,2.17,2.17,0,0,1-2.1-1.3l5.7-2.4Zm-5.8,1.4a2.429,2.429,0,0,1,2.2-2.5,1.769,1.769,0,0,1,1.6.9ZM92.6,40h1.9V27.5H92.6Zm-3-7.3h0a3.293,3.293,0,0,0-2.3-1A4.3,4.3,0,0,0,83.2,36a4.141,4.141,0,0,0,4.1,4.2,2.871,2.871,0,0,0,2.2-1h.1v.6a2.273,2.273,0,0,1-4.4,1l-1.6.7A4.125,4.125,0,0,0,87.4,44c2.2,0,4-1.3,4-4.4V32H89.6v.7Zm-2.2,5.9a2.608,2.608,0,0,1,0-5.2A2.406,2.406,0,0,1,89.7,36,2.406,2.406,0,0,1,87.4,38.6Zm24.4-11.1h-4.5V40h1.9V35.3h2.6a3.9,3.9,0,1,0,0-7.8Zm.1,6h-2.7V29.2h2.7a2.2,2.2,0,0,1,2.2,2.1A2.289,2.289,0,0,1,111.9,33.5Zm11.5-1.8a3.361,3.361,0,0,0-3.3,1.9l1.7.7a1.766,1.766,0,0,1,1.7-.9,1.879,1.879,0,0,1,2,1.6v.1a3.967,3.967,0,0,0-1.9-.5c-1.8,0-3.6,1-3.6,2.8a2.93,2.93,0,0,0,3.1,2.8,2.814,2.814,0,0,0,2.4-1.2h.1v1h1.8V35.2A3.785,3.785,0,0,0,123.4,31.7Zm-.2,6.9c-.6,0-1.5-.3-1.5-1.1,0-1,1.1-1.3,2-1.3a3.867,3.867,0,0,1,1.7.4A2.329,2.329,0,0,1,123.2,38.6ZM133.7,32l-2.1,5.4h-.1L129.3,32h-2l3.3,7.6-1.9,4.2h1.9L135.7,32Zm-16.8,8h1.9V27.5h-1.9Z"/>
  </g>
</svg>
