<svg xmlns="http://www.w3.org/2000/svg" width="18.205" height="16" viewBox="0 0 18.205 16">
  <defs>
    <style>
      .cls-1 {
        fill: #fff;
      }
    </style>
  </defs>
  <g id="корзина_меню" data-name="корзина меню" transform="translate(0 0)">
    <path id="Path_76" data-name="Path 76" class="cls-1" d="M5.865,10.55h9.672a.533.533,0,0,0,.513-.383l2.133-7.385A.523.523,0,0,0,18.1,2.32a.536.536,0,0,0-.426-.21H4.635L4.254.413A.532.532,0,0,0,3.733,0H.533A.53.53,0,0,0,0,.528a.53.53,0,0,0,.533.528H3.305L5.231,9.626a1.58,1.58,0,0,0,.636,3.035h9.671a.528.528,0,1,0,0-1.055H5.866a.527.527,0,1,1,0-1.055Zm11.1-7.385L15.135,9.5H6.294L4.872,3.165Zm0,0" transform="translate(0 0)"/>
    <path id="Path_77" data-name="Path 77" class="cls-1" d="M150,361.67a1.67,1.67,0,1,0,1.67-1.67A1.672,1.672,0,0,0,150,361.67Zm1.67-.557a.557.557,0,1,1-.557.557A.557.557,0,0,1,151.67,361.113Zm0,0" transform="translate(-144.716 -347.34)"/>
    <path id="Path_78" data-name="Path 78" class="cls-1" d="M362,361.67a1.67,1.67,0,1,0,1.67-1.67A1.672,1.672,0,0,0,362,361.67Zm1.67-.557a.557.557,0,1,1-.557.557A.557.557,0,0,1,363.67,361.113Zm0,0" transform="translate(-349.362 -347.34)"/>
  </g>
</svg>
