<svg id="блюдо_в_корзине" data-name="блюдо в корзине" xmlns="http://www.w3.org/2000/svg" width="20" height="20" viewBox="0 0 20 20">
  <defs>
    <style>
      .cls-1 {
        fill: #de3e26;
      }

      .cls-2 {
        fill: #fff;
      }
    </style>
  </defs>
  <circle id="Ellipse_12" data-name="Ellipse 12" class="cls-1" cx="10" cy="10" r="10"/>
  <path id="Path_76" data-name="Path 76" class="cls-2" d="M4.008,7.21h6.61a.364.364,0,0,0,.35-.261L12.425,1.9a.357.357,0,0,0-.059-.316.366.366,0,0,0-.291-.143H3.167L2.907.282A.364.364,0,0,0,2.551,0H.364A.362.362,0,0,0,0,.361a.362.362,0,0,0,.364.36H2.259L3.574,6.578a1.079,1.079,0,0,0,.434,2.074h6.609a.36.36,0,1,0,0-.721H4.009a.36.36,0,1,1,0-.721Zm7.584-5.047-1.25,4.326H4.3L3.329,2.163Zm0,0" transform="translate(2.917 4.967)"/>
  <path id="Path_77" data-name="Path 77" class="cls-2" d="M150,361.141A1.141,1.141,0,1,0,151.141,360,1.142,1.142,0,0,0,150,361.141Zm1.141-.38a.38.38,0,1,1-.38.38A.381.381,0,0,1,151.141,360.761Zm0,0" transform="translate(-143.473 -346.382)"/>
  <path id="Path_78" data-name="Path 78" class="cls-2" d="M362,361.141A1.141,1.141,0,1,0,363.141,360,1.142,1.142,0,0,0,362,361.141Zm1.141-.38a.38.38,0,1,1-.38.38A.381.381,0,0,1,363.141,360.761Zm0,0" transform="translate(-350.447 -346.382)"/>
</svg>
