<svg id="логого_серое" data-name="логого серое" xmlns="http://www.w3.org/2000/svg" width="45.838" height="40.096" viewBox="0 0 45.838 40.096">
  <defs>
    <style>
      .cls-1 {
        fill: #858585;
      }
    </style>
  </defs>
  <path id="Path_18" data-name="Path 18" class="cls-1" d="M8.5,32.789A16.752,16.752,0,1,1,33.217,11.41l4.02-1.669a20.048,20.048,0,1,0-6.258,27.106L28,33.059A16.759,16.759,0,0,1,8.5,32.789Z" transform="translate(0.012 0.003)"/>
  <path id="Path_19" data-name="Path 19" class="cls-1" d="M129.876,164.36A13.729,13.729,0,1,0,130,186.373l-2.15-2.737a11.309,11.309,0,1,1,3.423-12.52l3.013-1.252A13.666,13.666,0,0,0,129.876,164.36Z" transform="translate(-104.804 -156.894)"/>
  <path id="Path_20" data-name="Path 20" class="cls-1" d="M216.437,309.058l2.446-1.017a8.451,8.451,0,1,0-2.339,7.59l-1.651-2.105a6.7,6.7,0,1,1,1.543-4.468Z" transform="translate(-196.146 -292.267)"/>
  <path id="Path_21" data-name="Path 21" class="cls-1" d="M281.565,414.357a4.294,4.294,0,1,0,6.005-.91A4.294,4.294,0,0,0,281.565,414.357Zm4.2,3.374a2.188,2.188,0,1,1-.463-3.059A2.188,2.188,0,0,1,285.767,417.73Z" transform="translate(-272.413 -400.389)"/>
  <path id="Path_22" data-name="Path 22" class="cls-1" d="M1157.216,377.27l-4.759,1.95a20.094,20.094,0,0,1-4.957,21.469l3.491,4.464a23.708,23.708,0,0,0,6.224-27.883Z" transform="translate(-1113.515 -366.096)"/>
  <path id="Path_23" data-name="Path 23" class="cls-1" d="M764.628,607.57l-4.628,1.9,3.054,3.9A11.249,11.249,0,0,0,764.628,607.57Z" transform="translate(-737.491 -589.576)"/>
  <path id="Path_24" data-name="Path 24" class="cls-1" d="M948.592,504l-4.1,1.678a13.683,13.683,0,0,1-2.542,10.056l-.085.113,2.968,3.779q.563-.622,1.071-1.311A16.719,16.719,0,0,0,948.592,504Z" transform="translate(-913.974 -489.073)"/>
</svg>
