<svg xmlns="http://www.w3.org/2000/svg" width="169.23" height="21.52" viewBox="0 0 169.23 21.52">
  <defs>
    <style>
      .cls-1 {
        fill: #858585;
        stroke: #858585;
        stroke-miterlimit: 10;
      }
    </style>
  </defs>
  <g id="доставкаед_серый" data-name="доставкаед серый" transform="translate(0.5 0.5)">
    <path id="Path_1" data-name="Path 1" class="cls-1" d="M22.459,21.441q0,1-1.041,1H3.054Q2,22.446,2,21.434a1.538,1.538,0,0,1,.211-.654L11.239,2.76a1.036,1.036,0,0,1,2,0L22.27,20.8A1.6,1.6,0,0,1,22.459,21.441Zm-2.705-1.035L12.235,5.336,4.687,20.406Z" transform="translate(-2 -1.979)"/>
    <path id="Path_2" data-name="Path 2" class="cls-1" d="M149.538,31.334a8.209,8.209,0,0,1-2.5,6.029,8.5,8.5,0,0,1-12.038,0,8.5,8.5,0,0,1,0-12.046,8.5,8.5,0,0,1,12.038,0A8.194,8.194,0,0,1,149.538,31.334Zm-1.7,0a6.561,6.561,0,0,0-2-4.816,6.807,6.807,0,0,0-9.644,0,6.813,6.813,0,0,0,.007,9.643,6.807,6.807,0,0,0,9.644,0,6.575,6.575,0,0,0,2-4.827Z" transform="translate(-111.163 -19.395)"/>
    <path id="Path_3" data-name="Path 3" class="cls-1" d="M264.448,36.775a.906.906,0,0,1-.27.585,6.93,6.93,0,0,1-2.743,1.852,8.951,8.951,0,0,1-3.269.644,8.525,8.525,0,0,1-8.521-8.526,8.547,8.547,0,0,1,8.528-8.515,8.93,8.93,0,0,1,3.269.654,6.975,6.975,0,0,1,2.743,1.846.953.953,0,0,1,.27.6.9.9,0,0,1-.879.881.937.937,0,0,1-.587-.271q-.258-.235-.8-.683a6.436,6.436,0,0,0-4.025-1.319,6.854,6.854,0,0,0-6.83,6.808,6.831,6.831,0,0,0,6.816,6.828,6.457,6.457,0,0,0,4.024-1.308q.258-.234.8-.68a.94.94,0,0,1,.587-.27.9.9,0,0,1,.879.879Z" transform="translate(-209.163 -19.391)"/>
    <path id="Path_4" data-name="Path 4" class="cls-1" d="M364.14,23.675a.751.751,0,0,1-.855.843h-4.25V39a.85.85,0,1,1-1.7,0V24.518h-4.25a.75.75,0,0,1-.855-.843.763.763,0,0,1,.855-.855H363.3A.751.751,0,0,1,364.14,23.675Z" transform="translate(-294.98 -19.395)"/>
    <path id="Path_5" data-name="Path 5" class="cls-1" d="M435.666,39.049a.745.745,0,0,1-.276.579.914.914,0,0,1-.618.244.778.778,0,0,1-.742-.466l-2.344-4.688a1.034,1.034,0,0,1-.3.043h-8.5a1.038,1.038,0,0,1-.3-.043l-2.346,4.688a.772.772,0,0,1-.729.466.92.92,0,0,1-.629-.245.759.759,0,0,1-.273-.585.866.866,0,0,1,.106-.41l7.585-15.173a.871.871,0,0,1,1.674,0l7.585,15.184A.789.789,0,0,1,435.666,39.049Zm-4.824-5.989-3.709-7.438-3.727,7.438Z" transform="translate(-350.5 -19.404)"/>
    <path id="Path_6" data-name="Path 6" class="cls-1" d="M546.086,34.737a5.113,5.113,0,0,1-5.11,5.113h-4.25a.883.883,0,0,1-.857-.857V23.664a.883.883,0,0,1,.857-.857h4.25a4.256,4.256,0,0,1,2.673,7.577A4.816,4.816,0,0,1,546.086,34.737Zm-2.543-7.668a2.57,2.57,0,0,0-2.565-2.561h-3.413v5.123h3.413A2.57,2.57,0,0,0,543.543,27.069Zm.848,7.671a3.433,3.433,0,0,0-3.416-3.412h-3.41v6.821h3.4A3.433,3.433,0,0,0,544.391,34.741Z" transform="translate(-448.601 -19.385)"/>
    <path id="Path_7" data-name="Path 7" class="cls-1" d="M626.359,38.991a.817.817,0,0,1-.263.6.834.834,0,0,1-.6.262.817.817,0,0,1-.6-.258l-7.667-7.653a.836.836,0,0,1-.258-.445V39a.85.85,0,1,1-1.7,0V23.667a.85.85,0,1,1,1.7,0v7.511a.838.838,0,0,1,.258-.445l7.665-7.665a.817.817,0,0,1,.6-.258.9.9,0,0,1,.868.87.853.853,0,0,1-.255.6l-7.06,7.063,7.06,7.06A.843.843,0,0,1,626.359,38.991Z" transform="translate(-515.022 -19.387)"/>
    <path id="Path_8" data-name="Path 8" class="cls-1" d="M712.109,39.049a.746.746,0,0,1-.276.579.914.914,0,0,1-.618.244.778.778,0,0,1-.742-.466l-2.344-4.688a1.034,1.034,0,0,1-.3.043h-8.5a1.037,1.037,0,0,1-.3-.043l-2.346,4.688a.772.772,0,0,1-.729.466.92.92,0,0,1-.629-.245.759.759,0,0,1-.276-.585.864.864,0,0,1,.106-.41l7.585-15.173a.871.871,0,0,1,1.674,0l7.585,15.184A.789.789,0,0,1,712.109,39.049Zm-4.816-5.989-3.709-7.438-3.722,7.438Z" transform="translate(-581.752 -19.404)"/>
    <path id="Path_9" data-name="Path 9" class="cls-1" d="M826.5,21.36a.9.9,0,0,1-1.017,1.03H815.22a1.063,1.063,0,0,1-1.03-1.031V2.9a.989.989,0,0,1,.311-.721.981.981,0,0,1,.719-.311h10.259A.9.9,0,0,1,826.5,2.9a.892.892,0,0,1-1.017,1.017h-9.242v7.192h7.181a.905.905,0,0,1,1.031,1.017.918.918,0,0,1-1.031,1.03h-7.181v7.183h9.242A.9.9,0,0,1,826.5,21.36Z" transform="translate(-681.425 -1.87)"/>
    <path id="Path_10" data-name="Path 10" class="cls-1" d="M926.449,21.441q0,1-1.041,1H907.044q-1.054,0-1.054-1.012a1.54,1.54,0,0,1,.211-.654L915.227,2.76a1.036,1.036,0,0,1,2,0L926.253,20.8A1.6,1.6,0,0,1,926.449,21.441Zm-2.705-1.035-7.52-15.07-7.547,15.07Z" transform="translate(-758.219 -1.979)"/>
  </g>
</svg>
