<svg xmlns="http://www.w3.org/2000/svg" width="135" height="40" viewBox="0 0 135 40">
  <defs>
    <style>
      .cls-1 {
        fill: #858585;
      }

      .cls-2, .cls-3 {
        fill: #fff;
      }

      .cls-3 {
        stroke: #fff;
        stroke-miterlimit: 10;
        stroke-width: 0.2px;
      }
    </style>
  </defs>
  <g id="эпп_стор" data-name="эпп стор" transform="translate(-10 -10)">
    <path id="Path_40" data-name="Path 40" class="cls-1" d="M140,50H15a5.015,5.015,0,0,1-5-5V15a5.015,5.015,0,0,1,5-5H140a5.015,5.015,0,0,1,5,5V45A5.015,5.015,0,0,1,140,50Z"/>
    <path id="лого_эппл" data-name="лого эппл" class="cls-2" d="M39.7,29a5.8,5.8,0,0,1,2.7-4.7,5.691,5.691,0,0,0-4.5-2.4C36,21.7,34.1,23,33.2,23c-1,0-2.5-1.1-4.1-1.1A5.941,5.941,0,0,0,24,25c-2.2,3.8-.6,9.4,1.5,12.4,1.1,1.5,2.3,3.2,3.9,3.1s2.2-1,4.1-1,2.4,1,4.1,1,2.7-1.5,3.8-3A11.463,11.463,0,0,0,43.1,34a5.524,5.524,0,0,1-3.4-5Zm-3.1-9.2a6.2,6.2,0,0,0,1.3-4,5.356,5.356,0,0,0-3.6,1.9A5.057,5.057,0,0,0,33,21.5a3.959,3.959,0,0,0,3.6-1.7Z"/>
    <g id="доступно_в" data-name="доступно в" transform="translate(51.4 16.9)">
      <path id="Path_43" data-name="Path 43" class="cls-3" d="M52.1,24.3h-.7v-2H52a2.887,2.887,0,0,0,.8-2.3V17h4v5.3h.7v2h-.7V23H52.2v1.3ZM53.5,20a4.143,4.143,0,0,1-.6,2.3h3V17.8H53.4V20Z" transform="translate(-51.4 -16.9)"/>
      <path id="Path_44" data-name="Path 44" class="cls-3" d="M63.4,22.2A3.1,3.1,0,0,1,58.1,20a3.1,3.1,0,1,1,5.3,2.2Zm-3.8-.5a2.36,2.36,0,0,0,1.6.7,1.99,1.99,0,0,0,1.6-.7,2.413,2.413,0,0,0,.7-1.7,2.06,2.06,0,0,0-.7-1.7,2.36,2.36,0,0,0-1.6-.7,1.99,1.99,0,0,0-1.6.7,2.413,2.413,0,0,0-.7,1.7A2.06,2.06,0,0,0,59.6,21.7Z" transform="translate(-51.4 -16.9)"/>
      <path id="Path_45" data-name="Path 45" class="cls-3" d="M68.2,23.1A3.073,3.073,0,0,1,65.1,20a3.073,3.073,0,0,1,3.1-3.1,2.7,2.7,0,0,1,2.2,1l-.5.5a2.136,2.136,0,0,0-1.7-.8,2.193,2.193,0,0,0-1.7.7,2.06,2.06,0,0,0-.7,1.7,2.06,2.06,0,0,0,.7,1.7,2.413,2.413,0,0,0,1.7.7,2.271,2.271,0,0,0,1.8-.9l.5.5a3.915,3.915,0,0,1-1,.8A2.768,2.768,0,0,1,68.2,23.1Z" transform="translate(-51.4 -16.9)"/>
      <path id="Path_46" data-name="Path 46" class="cls-3" d="M73.7,23h-.8V17.7H71.2V17h4.1v.7H73.6V23Z" transform="translate(-51.4 -16.9)"/>
      <path id="Path_47" data-name="Path 47" class="cls-3" d="M80.6,17l-2.3,5.1a1.566,1.566,0,0,1-1.4,1.1,1.268,1.268,0,0,1-.6-.1l.2-.7a.6.6,0,0,0,.4.1c.2,0,.3,0,.4-.1a1.381,1.381,0,0,0,.3-.4l.2-.5-2-4.4h.9l1.5,3.4h0l1.4-3.4h1Z" transform="translate(-51.4 -16.9)"/>
      <path id="Path_48" data-name="Path 48" class="cls-3" d="M81.5,23V17h4.3v6H85V17.7H82.2V23Z" transform="translate(-51.4 -16.9)"/>
      <path id="Path_49" data-name="Path 49" class="cls-3" d="M87.2,23V17H88v2.6h3V17h.8v6H91V20.3H88V23Z" transform="translate(-51.4 -16.9)"/>
      <path id="Path_50" data-name="Path 50" class="cls-3" d="M98.1,22.2A3.1,3.1,0,0,1,92.8,20,3.1,3.1,0,1,1,99,20,3.978,3.978,0,0,1,98.1,22.2Zm-3.9-.5a2.36,2.36,0,0,0,1.6.7,1.99,1.99,0,0,0,1.6-.7,2.413,2.413,0,0,0,.7-1.7,2.06,2.06,0,0,0-.7-1.7,2.36,2.36,0,0,0-1.6-.7,1.99,1.99,0,0,0-1.6.7,2.414,2.414,0,0,0,0,3.4Z" transform="translate(-51.4 -16.9)"/>
      <path id="Path_51" data-name="Path 51" class="cls-3" d="M102.1,23V17h2.2a1.707,1.707,0,0,1,1.7,1.7,2.354,2.354,0,0,1-.2.8,1.024,1.024,0,0,1-.6.5h0a1.794,1.794,0,0,1,.7.5,1.222,1.222,0,0,1,.3.9,1.656,1.656,0,0,1-.5,1.2,2.106,2.106,0,0,1-1.3.5h-2.3Zm.8-3.4h1.4a.908.908,0,0,0,.7-.3.75.75,0,0,0,0-1.2.908.908,0,0,0-.7-.3h-1.4Zm0,2.7h1.6a1.025,1.025,0,0,0,1-1,1.08,1.08,0,0,0-.3-.7.908.908,0,0,0-.7-.3H103v2Z" transform="translate(-51.4 -16.9)"/>
    </g>
    <path id="эпп_стор-2" data-name="эпп стор" class="cls-2" d="M62.5,40.3H60.3l-1.2-3.8H54.9l-1.1,3.8H51.7l4.1-12.9h2.6l4.1,12.9ZM58.7,35l-1.1-3.4c-.1-.3-.3-1.2-.6-2.4h0c-.1.5-.3,1.4-.6,2.4L55.3,35Zm14.5.6a4.924,4.924,0,0,1-1.3,3.7A3.847,3.847,0,0,1,69,40.5a2.992,2.992,0,0,1-2.7-1.3v4.9H64.2v-10c0-1,0-2-.1-3.1H66l.1,1.5h0a3.446,3.446,0,0,1,3.1-1.7,3.225,3.225,0,0,1,2.7,1.3,4.752,4.752,0,0,1,1.3,3.5Zm-2.2.1a3.8,3.8,0,0,0-.6-2.2,2.019,2.019,0,0,0-1.8-.9,2.389,2.389,0,0,0-1.4.5,2.223,2.223,0,0,0-.8,1.3,1.268,1.268,0,0,0-.1.6v1.5a2.523,2.523,0,0,0,.6,1.7,1.99,1.99,0,0,0,1.6.7,2.019,2.019,0,0,0,1.8-.9A3.506,3.506,0,0,0,71,35.7Zm12.8-.1a4.924,4.924,0,0,1-1.3,3.7,3.847,3.847,0,0,1-2.9,1.2,2.992,2.992,0,0,1-2.7-1.3v4.9H75v-10c0-1,0-2-.1-3.1h1.8l.1,1.5h0a3.446,3.446,0,0,1,3.1-1.7,3.225,3.225,0,0,1,2.7,1.3,4.687,4.687,0,0,1,1.2,3.5Zm-2.1.1a3.8,3.8,0,0,0-.6-2.2,2.019,2.019,0,0,0-1.8-.9,2.389,2.389,0,0,0-1.4.5,2.223,2.223,0,0,0-.8,1.3c0,.2-.1.4-.1.6v1.5a2.523,2.523,0,0,0,.6,1.7,1.99,1.99,0,0,0,1.6.7A2.019,2.019,0,0,0,81,38,3.506,3.506,0,0,0,81.7,35.7Zm14.1,1a3.693,3.693,0,0,1-1.1,2.7,4.761,4.761,0,0,1-3.5,1.1,6.182,6.182,0,0,1-3.3-.8l.5-1.7a6.109,6.109,0,0,0,3,.8,2.969,2.969,0,0,0,1.8-.5,1.833,1.833,0,0,0,.2-2.7,4.258,4.258,0,0,0-1.8-1c-2.3-.8-3.4-2.1-3.4-3.7a3.225,3.225,0,0,1,1.2-2.6,4.554,4.554,0,0,1,3.2-1,6.235,6.235,0,0,1,2.9.6L95,29.6a6.967,6.967,0,0,0-2.7-.6,2.86,2.86,0,0,0-1.7.5,1.656,1.656,0,0,0-.5,1.2,1.76,1.76,0,0,0,.6,1.3,7.759,7.759,0,0,0,1.9,1A5.594,5.594,0,0,1,95,34.6a2.865,2.865,0,0,1,.8,2.1Zm6.8-4.1h-2.3v4.5c0,1.1.4,1.7,1.2,1.7a2.22,2.22,0,0,0,.9-.1l.1,1.6a3.664,3.664,0,0,1-1.6.2,2.352,2.352,0,0,1-1.9-.7,3.4,3.4,0,0,1-.7-2.5V32.6H96.9V31.1h1.4V29.4l2-.6v2.3h2.3v1.5Zm10.2,3a5.13,5.13,0,0,1-1.2,3.5,4.6,4.6,0,0,1-3.4,1.4,4.374,4.374,0,0,1-3.3-1.4,4.871,4.871,0,0,1-1.2-3.4,4.752,4.752,0,0,1,1.3-3.5,4.441,4.441,0,0,1,3.4-1.4,4.223,4.223,0,0,1,3.3,1.4,5.331,5.331,0,0,1,1.1,3.4Zm-2.1.1a3.8,3.8,0,0,0-.6-2.2,2.191,2.191,0,0,0-3.8,0,4.032,4.032,0,0,0-.6,2.2,3.8,3.8,0,0,0,.6,2.2,2.144,2.144,0,0,0,1.9,1.1,2.265,2.265,0,0,0,1.9-1.1,4.032,4.032,0,0,0,.6-2.2Zm8.8-2.8c-.2,0-.4-.1-.7-.1a2.136,2.136,0,0,0-1.7.8,3.453,3.453,0,0,0-.5,1.8v4.9h-2.1V34a28.1,28.1,0,0,0-.1-2.9h1.8l.1,1.8h.1a3.956,3.956,0,0,1,1-1.5,2.7,2.7,0,0,1,1.5-.5h.5l.1,2Zm9.3,2.4a2.768,2.768,0,0,1-.1.9h-6.2a2.583,2.583,0,0,0,.9,2.1,3.173,3.173,0,0,0,2,.6,6.566,6.566,0,0,0,2.5-.4l.3,1.4a7.455,7.455,0,0,1-3.1.6,4.375,4.375,0,0,1-3.4-1.3,4.7,4.7,0,0,1-1.2-3.4,5.625,5.625,0,0,1,1.1-3.5,3.934,3.934,0,0,1,3.2-1.5,3.328,3.328,0,0,1,3,1.5,4.359,4.359,0,0,1,1,3Zm-2-.6a2.934,2.934,0,0,0-.4-1.6,1.8,1.8,0,0,0-1.6-.9,1.943,1.943,0,0,0-1.6.8,3.819,3.819,0,0,0-.6,1.6l4.2.1Z"/>
  </g>
</svg>
