<svg xmlns="http://www.w3.org/2000/svg" width="40" height="40" viewBox="0 0 40 40">
  <defs>
    <style>
      .cls-1 {
        fill: #fff;
      }

      .cls-2 {
        fill: #de3e26;
      }
    </style>
  </defs>
  <g id="в_подарок" data-name="в подарок" transform="translate(-704 -788)">
    <circle id="Ellipse_9" data-name="Ellipse 9" class="cls-1" cx="20" cy="20" r="20" transform="translate(704 788)"/>
    <g id="giftbox" transform="translate(711.5 795.5)">
      <g id="Group_18" data-name="Group 18" transform="translate(0 0)">
        <g id="Group_17" data-name="Group 17">
          <path id="Path_56" data-name="Path 56" class="cls-2" d="M23.151,5.25h-1.8A2.868,2.868,0,0,0,21.787,4a3.206,3.206,0,0,0-5.34-2.72L14.171,3.348a2.419,2.419,0,0,0-3.578,0L8.313,1.285a3.206,3.206,0,0,0-5.34,2.721A2.868,2.868,0,0,0,3.413,5.25h-1.8A1.615,1.615,0,0,0,0,6.865V9.288a.808.808,0,0,0,.808.808H23.958a.808.808,0,0,0,.808-.808V6.865A1.615,1.615,0,0,0,23.151,5.25ZM9.96,4.981V5.25h-3.8A1.59,1.59,0,0,1,5.49,2.218a1.554,1.554,0,0,1,1.739.263L9.961,4.957C9.961,4.965,9.96,4.973,9.96,4.981ZM20.185,3.79a1.636,1.636,0,0,1-1.66,1.46H14.806V4.981c0-.01,0-.019,0-.028l2.689-2.437a1.615,1.615,0,0,1,1.528-.39A1.571,1.571,0,0,1,20.185,3.79Z" transform="translate(0 -0.448)"/>
        </g>
      </g>
      <g id="Group_20" data-name="Group 20" transform="translate(1.615 11.263)">
        <g id="Group_19" data-name="Group 19">
          <path id="Path_57" data-name="Path 57" class="cls-2" d="M33.391,233.291v11.845a1.615,1.615,0,0,0,1.615,1.615h7.537v-13.46Z" transform="translate(-33.391 -233.291)"/>
        </g>
      </g>
      <g id="Group_22" data-name="Group 22" transform="translate(13.998 11.263)">
        <g id="Group_21" data-name="Group 21">
          <path id="Path_58" data-name="Path 58" class="cls-2" d="M289.391,233.291v13.46h7.537a1.615,1.615,0,0,0,1.615-1.615V233.291Z" transform="translate(-289.391 -233.291)"/>
        </g>
      </g>
    </g>
  </g>
</svg>
