<svg id="лого_доставка_белая" data-name="лого доставка белая" xmlns="http://www.w3.org/2000/svg" width="16" height="13.996" viewBox="0 0 16 13.996">
  <defs>
    <style>
      .cls-1 {
        fill: #fff;
      }
    </style>
  </defs>
  <path id="Path_18" data-name="Path 18" class="cls-1" d="M2.958,11.443a5.848,5.848,0,1,1,8.628-7.462l1.4-.583a7,7,0,1,0-2.185,9.462L9.767,11.537A5.85,5.85,0,0,1,2.958,11.443Z" transform="translate(0.012 0.003)"/>
  <path id="Path_19" data-name="Path 19" class="cls-1" d="M115.638,162.617a4.792,4.792,0,1,0,.045,7.684l-.75-.955a3.948,3.948,0,1,1,1.195-4.37l1.052-.437A4.77,4.77,0,0,0,115.638,162.617Z" transform="translate(-106.886 -160.011)"/>
  <path id="Path_20" data-name="Path 20" class="cls-1" d="M207.126,303.935l.854-.355a2.95,2.95,0,1,0-.816,2.649l-.576-.735a2.338,2.338,0,1,1,.539-1.56Z" transform="translate(-200.043 -298.073)"/>
  <path id="Path_21" data-name="Path 21" class="cls-1" d="M281.02,413.219a1.5,1.5,0,1,0,2.1-.317A1.5,1.5,0,0,0,281.02,413.219Zm1.467,1.178a.764.764,0,1,1-.162-1.068A.764.764,0,0,1,282.486,414.4Z" transform="translate(-277.825 -408.344)"/>
  <path id="Path_22" data-name="Path 22" class="cls-1" d="M1150.891,377.27l-1.661.681a7.014,7.014,0,0,1-1.73,7.494l1.219,1.558a8.275,8.275,0,0,0,2.173-9.733Z" transform="translate(-1135.637 -373.37)"/>
  <path id="Path_23" data-name="Path 23" class="cls-1" d="M761.615,607.57l-1.615.662,1.066,1.363A3.928,3.928,0,0,0,761.615,607.57Z" transform="translate(-752.143 -601.289)"/>
  <path id="Path_24" data-name="Path 24" class="cls-1" d="M944.217,504l-1.429.586a4.776,4.776,0,0,1-.887,3.51l-.03.039,1.036,1.319q.2-.217.374-.457A5.836,5.836,0,0,0,944.217,504Z" transform="translate(-932.133 -498.79)"/>
</svg>
