<svg id="логого" xmlns="http://www.w3.org/2000/svg" width="58.08" height="50.804" viewBox="0 0 58.08 50.804">
  <defs>
    <style>
      .cls-1 {
        fill: #fff;
      }
    </style>
  </defs>
  <path id="Path_18" data-name="Path 18" class="cls-1" d="M10.77,41.546A21.226,21.226,0,1,1,42.091,14.458l5.094-2.115a25.4,25.4,0,1,0-7.93,34.346l-3.769-4.8A21.235,21.235,0,0,1,10.77,41.546Z" transform="translate(0.012 0.003)"/>
  <path id="Path_19" data-name="Path 19" class="cls-1" d="M135.718,165.075a17.4,17.4,0,1,0,.163,27.891l-2.724-3.468a14.33,14.33,0,1,1,4.337-15.864l3.818-1.587A17.315,17.315,0,0,0,135.718,165.075Z" transform="translate(-103.949 -155.615)"/>
  <path id="Path_20" data-name="Path 20" class="cls-1" d="M220.257,311.16l3.1-1.288a10.708,10.708,0,1,0-2.963,9.617l-2.092-2.667a8.488,8.488,0,1,1,1.956-5.661Z" transform="translate(-194.547 -289.884)"/>
  <path id="Path_21" data-name="Path 21" class="cls-1" d="M281.788,414.823a5.441,5.441,0,1,0,7.609-1.152A5.441,5.441,0,0,0,281.788,414.823Zm5.325,4.275a2.772,2.772,0,1,1-.587-3.876A2.772,2.772,0,0,1,287.113,419.1Z" transform="translate(-270.192 -397.125)"/>
  <path id="Path_22" data-name="Path 22" d="M1159.811,377.27l-6.03,2.471a25.46,25.46,0,0,1-6.281,27.2l4.424,5.657a30.04,30.04,0,0,0,7.887-35.33Z" transform="translate(-1104.438 -363.112)"/>
  <path id="Path_23" data-name="Path 23" d="M765.864,607.57l-5.864,2.4,3.869,4.946A14.252,14.252,0,0,0,765.864,607.57Z" transform="translate(-731.479 -584.77)"/>
  <path id="Path_24" data-name="Path 24" d="M950.388,504l-5.189,2.126a17.337,17.337,0,0,1-3.221,12.741l-.108.143,3.76,4.788q.713-.788,1.357-1.661A21.184,21.184,0,0,0,950.388,504Z" transform="translate(-906.524 -485.086)"/>
</svg>
