<svg id="лого_серое" data-name="лого серое" xmlns="http://www.w3.org/2000/svg" width="34.644" height="30.304" viewBox="0 0 34.644 30.304">
  <g id="логого" transform="translate(0 0)">
    <path id="Path_18" data-name="Path 18" d="M6.42,24.781A12.661,12.661,0,1,1,25.1,8.623L28.14,7.361a15.152,15.152,0,1,0-4.73,20.487l-2.248-2.863A12.667,12.667,0,0,1,6.42,24.781Z" transform="translate(0.012 0.003)" fill="#4b4b4b"/>
    <path id="Path_19" data-name="Path 19" d="M124.535,163.706a10.376,10.376,0,1,0,.1,16.637l-1.625-2.069a8.548,8.548,0,1,1,2.587-9.463l2.277-.947A10.328,10.328,0,0,0,124.535,163.706Z" transform="translate(-105.585 -158.063)" fill="#4b4b4b"/>
    <path id="Path_20" data-name="Path 20" d="M212.944,307.136l1.849-.768a6.387,6.387,0,1,0-1.767,5.736l-1.248-1.591a5.063,5.063,0,1,1,1.166-3.377Z" transform="translate(-197.608 -294.445)" fill="#4b4b4b"/>
    <path id="Path_21" data-name="Path 21" d="M281.36,413.93a3.246,3.246,0,1,0,4.539-.687A3.246,3.246,0,0,0,281.36,413.93Zm3.176,2.55a1.654,1.654,0,1,1-.35-2.312A1.654,1.654,0,0,1,284.536,416.48Z" transform="translate(-274.443 -403.373)" fill="#4b4b4b"/>
    <path id="Path_22" data-name="Path 22" d="M1154.843,377.27l-3.6,1.474a15.186,15.186,0,0,1-3.746,16.226l2.639,3.374a17.918,17.918,0,0,0,4.7-21.074Z" transform="translate(-1121.814 -368.825)" fill="#4b4b4b"/>
    <path id="Path_23" data-name="Path 23" d="M763.5,607.57,760,609l2.308,2.95A8.5,8.5,0,0,0,763.5,607.57Z" transform="translate(-742.988 -593.97)" fill="#4b4b4b"/>
    <path id="Path_24" data-name="Path 24" d="M946.951,504l-3.1,1.268a10.342,10.342,0,0,1-1.921,7.6l-.064.086,2.243,2.856q.425-.47.809-.991A12.636,12.636,0,0,0,946.951,504Z" transform="translate(-920.787 -492.718)" fill="#4b4b4b"/>
  </g>
</svg>
