<svg xmlns="http://www.w3.org/2000/svg" width="12.168" height="16" viewBox="0 0 12.168 16">
  <defs>
    <style>
      .cls-1 {
        fill: #4b4b4b;
      }
    </style>
  </defs>
  <g id="чел" transform="translate(0)">
    <path id="Path_87" data-name="Path 87" class="cls-1" d="M107.756,7.825c1.779,0,3.221-1.752,3.221-3.913S110.5,0,107.756,0s-3.221,1.752-3.221,3.913S105.977,7.825,107.756,7.825Z" transform="translate(-101.672)"/>
    <path id="Path_90" data-name="Path 90" class="cls-1" d="M54.069,183.256c-.06-3.764-.551-4.837-4.313-5.516a2.643,2.643,0,0,1-3.528,0c-3.721.672-4.242,1.728-4.311,5.393-.006.3-.008.315-.009.28,0,.065,0,.186,0,.4,0,0,.9,1.806,6.084,1.806s6.084-1.806,6.084-1.806c0-.135,0-.229,0-.293A2.423,2.423,0,0,1,54.069,183.256Z" transform="translate(-41.908 -169.615)"/>
  </g>
</svg>
