<svg xmlns="http://www.w3.org/2000/svg" width="10.66" height="16" viewBox="0 0 10.66 16">
  <defs>
    <style>
      .cls-1 {
        fill: #4b4b4b;
      }
    </style>
  </defs>
  <g id="геотэг" transform="translate(0)">
    <path id="геотэг-2" data-name="геотэг" class="cls-1" d="M19.355,0a5.309,5.309,0,0,0-5.33,5.273c0,6.206,4.873,10.451,5.083,10.641a.4.4,0,0,0,.495,0c.209-.19,5.083-4.454,5.083-10.641A5.309,5.309,0,0,0,19.355,0Zm0,15.1c-.99-.952-4.569-4.759-4.569-9.823a4.569,4.569,0,0,1,9.137,0C23.924,10.337,20.345,14.144,19.355,15.1Zm0-12.811A3.046,3.046,0,1,0,22.4,5.33,3.055,3.055,0,0,0,19.355,2.284Zm0,5.33A2.284,2.284,0,1,1,21.64,5.33,2.291,2.291,0,0,1,19.355,7.615Z" transform="translate(-14.025)"/>
  </g>
</svg>
