<svg id="монеты" xmlns="http://www.w3.org/2000/svg" width="12.54" height="16" viewBox="0 0 12.54 16">
  <defs>
    <style>
      .cls-1 {
        fill: #4b4b4b;
      }
    </style>
  </defs>
  <path id="Path_94" data-name="Path 94" class="cls-1" d="M174.509,22.379c-3.463,0-6.27,1.3-6.27,2.915v.632c0,1.61,2.807,2.915,6.27,2.915s6.27-1.3,6.27-2.915v-.632C180.779,23.684,177.971,22.379,174.509,22.379Z" transform="translate(-168.239 -22.379)"/>
  <path id="Path_95" data-name="Path 95" class="cls-1" d="M174.509,125.862c-3.023,0-5.545-.994-6.138-2.318a1.451,1.451,0,0,0-.132.6v.632c0,1.61,2.807,2.915,6.27,2.915s6.27-1.3,6.27-2.915v-.632a1.451,1.451,0,0,0-.132-.6C180.054,124.867,177.531,125.862,174.509,125.862Z" transform="translate(-168.239 -118.154)"/>
  <path id="Path_96" data-name="Path 96" class="cls-1" d="M174.509,184.946c-3.023,0-5.545-.994-6.138-2.318a1.451,1.451,0,0,0-.132.6v.632c0,1.61,2.807,2.915,6.27,2.915s6.27-1.3,6.27-2.915v-.632a1.451,1.451,0,0,0-.132-.6C180.054,183.951,177.531,184.946,174.509,184.946Z" transform="translate(-168.239 -174.09)"/>
  <path id="Path_97" data-name="Path 97" class="cls-1" d="M174.509,247.219c-3.023,0-5.545-.994-6.138-2.318a1.451,1.451,0,0,0-.132.6v.632c0,1.61,2.807,2.915,6.27,2.915s6.27-1.3,6.27-2.915V245.5a1.451,1.451,0,0,0-.132-.6C180.054,246.224,177.531,247.219,174.509,247.219Z" transform="translate(-168.239 -233.045)"/>
</svg>
