<svg id="монеты_белые" data-name="монеты белые" xmlns="http://www.w3.org/2000/svg" width="10.972" height="14" viewBox="0 0 10.972 14">
  <defs>
    <style>
      .cls-1 {
        fill: #fff;
      }
    </style>
  </defs>
  <path id="Path_94" data-name="Path 94" class="cls-1" d="M173.725,22.379c-3.03,0-5.486,1.142-5.486,2.55v.553c0,1.409,2.456,2.55,5.486,2.55s5.486-1.142,5.486-2.55v-.553C179.211,23.521,176.755,22.379,173.725,22.379Z" transform="translate(-168.239 -22.379)"/>
  <path id="Path_95" data-name="Path 95" class="cls-1" d="M173.725,125.572c-2.645,0-4.852-.87-5.371-2.028a1.269,1.269,0,0,0-.115.522v.553c0,1.409,2.456,2.55,5.486,2.55s5.486-1.142,5.486-2.55v-.553a1.27,1.27,0,0,0-.115-.522C178.577,124.7,176.37,125.572,173.725,125.572Z" transform="translate(-168.239 -118.828)"/>
  <path id="Path_96" data-name="Path 96" class="cls-1" d="M173.725,184.656c-2.645,0-4.852-.87-5.371-2.028a1.269,1.269,0,0,0-.115.522v.553c0,1.409,2.456,2.551,5.486,2.551s5.486-1.142,5.486-2.551v-.553a1.27,1.27,0,0,0-.115-.522C178.577,183.786,176.37,184.656,173.725,184.656Z" transform="translate(-168.239 -175.157)"/>
  <path id="Path_97" data-name="Path 97" class="cls-1" d="M173.725,246.929c-2.645,0-4.852-.87-5.371-2.028a1.269,1.269,0,0,0-.115.522v.553c0,1.409,2.456,2.55,5.486,2.55s5.486-1.142,5.486-2.55v-.553a1.269,1.269,0,0,0-.115-.522C178.577,246.059,176.37,246.929,173.725,246.929Z" transform="translate(-168.239 -234.527)"/>
</svg>
