<svg xmlns="http://www.w3.org/2000/svg" width="214.159" height="27" viewBox="0 0 214.159 27">
  <defs>
    <style>
      .cls-1 {
        fill: #fff;
        stroke: #fff;
        stroke-miterlimit: 10;
      }
    </style>
  </defs>
  <g id="доставкаед" transform="translate(0.5 0.5)">
    <path id="Path_1" data-name="Path 1" class="cls-1" d="M27.923,26.633q0,1.272-1.319,1.272H3.336Q2,27.907,2,26.625a1.949,1.949,0,0,1,.267-.828L13.707,2.963a1.313,1.313,0,0,1,2.531,0L27.683,25.819A2.026,2.026,0,0,1,27.923,26.633ZM24.5,25.322,14.968,6.227,5.405,25.322Z" transform="translate(-2 -1.973)"/>
    <path id="Path_2" data-name="Path 2" class="cls-1" d="M154.09,33.608a10.4,10.4,0,0,1-3.171,7.639,10.77,10.77,0,0,1-15.252,0,10.768,10.768,0,0,1,0-15.263,10.77,10.77,0,0,1,15.252,0A10.383,10.383,0,0,1,154.09,33.608Zm-2.154,0a8.314,8.314,0,0,0-2.537-6.1,8.625,8.625,0,0,0-12.22,0,8.633,8.633,0,0,0,.008,12.218,8.625,8.625,0,0,0,12.22,0,8.33,8.33,0,0,0,2.531-6.116Z" transform="translate(-105.466 -18.48)"/>
    <path id="Path_3" data-name="Path 3" class="cls-1" d="M268.4,40.5a1.148,1.148,0,0,1-.342.741,8.781,8.781,0,0,1-3.476,2.347,11.342,11.342,0,0,1-4.142.816,10.8,10.8,0,0,1-10.8-10.8,10.83,10.83,0,0,1,10.806-10.789,11.315,11.315,0,0,1,4.142.828,8.838,8.838,0,0,1,3.475,2.338,1.208,1.208,0,0,1,.342.76,1.145,1.145,0,0,1-1.114,1.116,1.187,1.187,0,0,1-.744-.344q-.327-.3-1.011-.866a8.154,8.154,0,0,0-5.1-1.671,8.684,8.684,0,0,0-8.654,8.627,8.656,8.656,0,0,0,8.637,8.651,8.181,8.181,0,0,0,5.1-1.657q.327-.3,1.011-.862a1.191,1.191,0,0,1,.744-.342,1.143,1.143,0,0,1,1.114,1.114Z" transform="translate(-198.351 -18.477)"/>
    <path id="Path_4" data-name="Path 4" class="cls-1" d="M367.321,23.9a.951.951,0,0,1-1.083,1.069h-5.385V43.327a1.077,1.077,0,1,1-2.154,0V24.972h-5.385A.95.95,0,0,1,352.23,23.9a.966.966,0,0,1,1.083-1.083h12.939A.951.951,0,0,1,367.321,23.9Z" transform="translate(-279.69 -18.481)"/>
    <path id="Path_5" data-name="Path 5" class="cls-1" d="M440.223,43.381a.944.944,0,0,1-.35.733,1.158,1.158,0,0,1-.783.309.986.986,0,0,1-.94-.59l-2.97-5.94a1.31,1.31,0,0,1-.385.054h-10.77a1.315,1.315,0,0,1-.385-.054l-2.972,5.94a.978.978,0,0,1-.924.59,1.166,1.166,0,0,1-.8-.311.961.961,0,0,1-.346-.742,1.1,1.1,0,0,1,.135-.52l9.61-19.225a1.1,1.1,0,0,1,2.121.006l9.611,19.24A1,1,0,0,1,440.223,43.381Zm-6.112-7.589-4.7-9.424-4.722,9.424Z" transform="translate(-332.313 -18.489)"/>
    <path id="Path_6" data-name="Path 6" class="cls-1" d="M548.815,37.924A6.479,6.479,0,0,1,542.34,44.4h-5.385a1.118,1.118,0,0,1-1.085-1.085V23.893a1.118,1.118,0,0,1,1.085-1.085h5.385a5.413,5.413,0,0,1,5.406,5.393,5.178,5.178,0,0,1-2.019,4.207A6.1,6.1,0,0,1,548.815,37.924Zm-3.223-9.716a3.256,3.256,0,0,0-3.25-3.246h-4.325v6.491h4.325A3.256,3.256,0,0,0,545.592,28.208Zm1.075,9.72a4.35,4.35,0,0,0-4.329-4.323h-4.321v8.643h4.314A4.35,4.35,0,0,0,546.667,37.928Z" transform="translate(-425.294 -18.471)"/>
    <path id="Path_7" data-name="Path 7" class="cls-1" d="M629.321,43.313a1.036,1.036,0,0,1-.333.76,1.056,1.056,0,0,1-.764.331,1.036,1.036,0,0,1-.758-.327l-9.714-9.7a1.06,1.06,0,0,1-.327-.563v9.5a1.077,1.077,0,1,1-2.154,0V23.9a1.077,1.077,0,1,1,2.154,0v9.517a1.062,1.062,0,0,1,.327-.563l9.712-9.712a1.036,1.036,0,0,1,.758-.327,1.145,1.145,0,0,1,1.1,1.1,1.082,1.082,0,0,1-.323.758l-8.946,8.95L629,42.565A1.069,1.069,0,0,1,629.321,43.313Z" transform="translate(-488.248 -18.473)"/>
    <path id="Path_8" data-name="Path 8" class="cls-1" d="M716.668,43.381a.945.945,0,0,1-.35.733,1.158,1.158,0,0,1-.783.309.986.986,0,0,1-.94-.59l-2.97-5.94a1.31,1.31,0,0,1-.385.054h-10.77a1.314,1.314,0,0,1-.385-.054l-2.972,5.94a.978.978,0,0,1-.924.59,1.166,1.166,0,0,1-.8-.311.961.961,0,0,1-.35-.742,1.1,1.1,0,0,1,.135-.52l9.61-19.225a1.1,1.1,0,0,1,2.121.006l9.61,19.24A1,1,0,0,1,716.668,43.381Zm-6.1-7.589-4.7-9.424-4.716,9.424Z" transform="translate(-551.496 -18.489)"/>
    <path id="Path_9" data-name="Path 9" class="cls-1" d="M829.782,26.565a1.146,1.146,0,0,1-1.288,1.3h-13a1.346,1.346,0,0,1-1.3-1.307V3.177a1.253,1.253,0,0,1,.393-.913,1.243,1.243,0,0,1,.911-.394h13a1.146,1.146,0,0,1,1.288,1.3,1.13,1.13,0,0,1-1.288,1.288H816.783v9.113h9.1a1.147,1.147,0,0,1,1.307,1.288,1.163,1.163,0,0,1-1.307,1.3h-9.1v9.1h11.711A1.145,1.145,0,0,1,829.782,26.565Z" transform="translate(-645.968 -1.87)"/>
    <path id="Path_10" data-name="Path 10" class="cls-1" d="M931.913,26.633q0,1.272-1.319,1.272H907.326q-1.336,0-1.336-1.282a1.952,1.952,0,0,1,.267-.828L917.694,2.963a1.313,1.313,0,0,1,2.531,0l11.439,22.856A2.025,2.025,0,0,1,931.913,26.633Zm-3.428-1.311L918.958,6.227,909.4,25.322Z" transform="translate(-718.754 -1.973)"/>
  </g>
</svg>
