<svg xmlns="http://www.w3.org/2000/svg" width="128.147" height="16.509" viewBox="0 0 128.147 16.509">
  <g id="название_серое" data-name="название серое" transform="translate(0.5 0.5)">
    <g id="доставкаед" transform="translate(0 0)">
      <path id="Path_1" data-name="Path 1" d="M17.463,16.693q0,.759-.787.759H2.8q-.8,0-.8-.764a1.163,1.163,0,0,1,.159-.494L8.983,2.574a.783.783,0,0,1,1.51,0L17.32,16.208A1.208,1.208,0,0,1,17.463,16.693Zm-2.045-.782L9.735,4.522l-5.7,11.39Z" transform="translate(-2 -1.984)" fill="#4b4b4b" stroke="#4b4b4b" stroke-miterlimit="10" stroke-width="1"/>
      <path id="Path_2" data-name="Path 2" d="M145.376,29.255a6.2,6.2,0,0,1-1.891,4.556,6.424,6.424,0,0,1-9.1,0,6.423,6.423,0,0,1,0-9.1,6.424,6.424,0,0,1,9.1,0A6.193,6.193,0,0,1,145.376,29.255Zm-1.285,0a4.959,4.959,0,0,0-1.513-3.64,5.144,5.144,0,0,0-7.289,0,5.15,5.15,0,0,0,0,7.288,5.144,5.144,0,0,0,7.289,0,4.969,4.969,0,0,0,1.51-3.648Z" transform="translate(-116.372 -20.231)" fill="#4b4b4b" stroke="#4b4b4b" stroke-miterlimit="10" stroke-width="1"/>
      <path id="Path_3" data-name="Path 3" d="M260.833,33.366a.685.685,0,0,1-.2.442,5.238,5.238,0,0,1-2.073,1.4,6.765,6.765,0,0,1-2.471.487,6.443,6.443,0,0,1-6.44-6.444,6.46,6.46,0,0,1,6.445-6.435,6.749,6.749,0,0,1,2.471.494,5.272,5.272,0,0,1,2.073,1.395.721.721,0,0,1,.2.453.683.683,0,0,1-.665.666.708.708,0,0,1-.444-.205q-.2-.178-.6-.516a4.864,4.864,0,0,0-3.042-1,5.149,5.149,0,0,0-3.65,8.794,4.962,4.962,0,0,0,3.64,1.512,4.88,4.88,0,0,0,3.042-.988q.2-.177.6-.514a.71.71,0,0,1,.444-.2.682.682,0,0,1,.665.665Z" transform="translate(-219.049 -20.227)" fill="#4b4b4b" stroke="#4b4b4b" stroke-miterlimit="10" stroke-width="1"/>
      <path id="Path_4" data-name="Path 4" d="M361.231,23.466a.567.567,0,0,1-.646.637h-3.212V35.052a.642.642,0,1,1-1.285,0V24.1h-3.212a.567.567,0,0,1-.646-.637.576.576,0,0,1,.646-.646h7.718A.567.567,0,0,1,361.231,23.466Z" transform="translate(-308.961 -20.232)" fill="#4b4b4b" stroke="#4b4b4b" stroke-miterlimit="10" stroke-width="1"/>
      <path id="Path_5" data-name="Path 5" d="M431.5,35.088a.563.563,0,0,1-.209.437.691.691,0,0,1-.467.184.588.588,0,0,1-.561-.352l-1.772-3.543a.782.782,0,0,1-.23.032h-6.424a.784.784,0,0,1-.23-.032l-1.773,3.543a.583.583,0,0,1-.551.352.7.7,0,0,1-.476-.185.573.573,0,0,1-.206-.442.655.655,0,0,1,.08-.31L424.413,23.3a.658.658,0,0,1,1.265,0l5.733,11.476A.6.6,0,0,1,431.5,35.088Zm-3.646-4.527-2.8-5.621-2.817,5.621Z" transform="translate(-367.131 -20.24)" fill="#4b4b4b" stroke="#4b4b4b" stroke-miterlimit="10" stroke-width="1"/>
      <path id="Path_6" data-name="Path 6" d="M543.592,31.824a3.865,3.865,0,0,1-3.862,3.865h-3.212a.667.667,0,0,1-.647-.647V23.455a.667.667,0,0,1,.647-.647h3.212a3.217,3.217,0,0,1,2.02,5.726A3.64,3.64,0,0,1,543.592,31.824Zm-1.922-5.8a1.942,1.942,0,0,0-1.938-1.936h-2.58v3.872h2.58A1.942,1.942,0,0,0,541.669,26.029Zm.641,5.8a2.594,2.594,0,0,0-2.582-2.578h-2.577V34.4h2.573A2.594,2.594,0,0,0,542.31,31.827Z" transform="translate(-469.913 -20.221)" fill="#4b4b4b" stroke="#4b4b4b" stroke-miterlimit="10" stroke-width="1"/>
      <path id="Path_7" data-name="Path 7" d="M623.651,35.04a.618.618,0,0,1-.2.453.63.63,0,0,1-.456.2.618.618,0,0,1-.452-.2l-5.794-5.784a.632.632,0,0,1-.2-.336v5.67a.642.642,0,1,1-1.285,0V23.457a.642.642,0,1,1,1.285,0v5.677a.633.633,0,0,1,.2-.336l5.793-5.793a.618.618,0,0,1,.452-.2.683.683,0,0,1,.656.657.645.645,0,0,1-.193.452l-5.336,5.338,5.336,5.336A.637.637,0,0,1,623.651,35.04Z" transform="translate(-539.503 -20.223)" fill="#4b4b4b" stroke="#4b4b4b" stroke-miterlimit="10" stroke-width="1"/>
      <path id="Path_8" data-name="Path 8" d="M707.941,35.088a.564.564,0,0,1-.209.437.69.69,0,0,1-.467.184.588.588,0,0,1-.561-.352l-1.772-3.543a.781.781,0,0,1-.23.032h-6.424a.784.784,0,0,1-.23-.032l-1.773,3.543a.583.583,0,0,1-.551.352.7.7,0,0,1-.476-.185.573.573,0,0,1-.209-.442.654.654,0,0,1,.08-.31L700.853,23.3a.658.658,0,0,1,1.265,0l5.732,11.476A.6.6,0,0,1,707.941,35.088Zm-3.64-4.527-2.8-5.621-2.813,5.621Z" transform="translate(-609.418 -20.24)" fill="#4b4b4b" stroke="#4b4b4b" stroke-miterlimit="10" stroke-width="1"/>
      <path id="Path_9" data-name="Path 9" d="M823.49,16.6a.684.684,0,0,1-.768.778h-7.754a.8.8,0,0,1-.778-.78V2.65a.747.747,0,0,1,.235-.545.742.742,0,0,1,.544-.235h7.754a.684.684,0,0,1,.768.778.674.674,0,0,1-.768.768h-6.985V8.853h5.427a.684.684,0,0,1,.78.768.694.694,0,0,1-.78.778h-5.427v5.429h6.985A.683.683,0,0,1,823.49,16.6Z" transform="translate(-713.847 -1.87)" fill="#4b4b4b" stroke="#4b4b4b" stroke-miterlimit="10" stroke-width="1"/>
      <path id="Path_10" data-name="Path 10" d="M921.453,16.693q0,.759-.787.759H906.787q-.8,0-.8-.765a1.164,1.164,0,0,1,.159-.494l6.822-13.618a.783.783,0,0,1,1.51,0L921.3,16.208A1.207,1.207,0,0,1,921.453,16.693Zm-2.045-.782-5.683-11.39-5.7,11.39Z" transform="translate(-794.306 -1.984)" fill="#4b4b4b" stroke="#4b4b4b" stroke-miterlimit="10" stroke-width="1"/>
    </g>
  </g>
</svg>
