<svg id="мои_заказы" data-name="мои заказы" xmlns="http://www.w3.org/2000/svg" width="13" height="16" viewBox="0 0 13 16">
  <g id="Rectangle_53" data-name="Rectangle 53" fill="#4b4b4b" stroke="#4b4b4b" stroke-width="1">
    <rect width="13" height="16" rx="1" stroke="none"/>
    <rect x="0.5" y="0.5" width="12" height="15" rx="0.5" fill="none"/>
  </g>
  <path id="Path_916" data-name="Path 916" d="M131.878,192.155a.5.5,0,0,0-.708,0l-1.646,1.647-.646-.647a.5.5,0,1,0-.707.707l1,1a.5.5,0,0,0,.353.147.5.5,0,0,0,.354-.146l2-2A.5.5,0,0,0,131.878,192.155Z" transform="translate(-125.941 -189.925)" fill="#fff"/>
  <path id="Path_917" data-name="Path 917" d="M131.878,320.155a.5.5,0,0,0-.708,0l-1.646,1.647-.646-.646a.5.5,0,0,0-.707.707l1,1a.5.5,0,0,0,.707,0l2-2A.5.5,0,0,0,131.878,320.155Z" transform="translate(-125.941 -313.428)" fill="#fff"/>
  <path id="Path_918" data-name="Path 918" d="M290.5,224h-2a.5.5,0,0,0,0,1h2a.5.5,0,1,0,0-1Z" transform="translate(-280.084 -220.917)" fill="#fff"/>
  <path id="Path_919" data-name="Path 919" d="M290.5,352h-2a.5.5,0,0,0,0,1h2a.5.5,0,1,0,0-1Z" transform="translate(-280.084 -344.426)" fill="#fff"/>
  <path id="Path_917-2" data-name="Path 917" d="M131.878,320.155a.5.5,0,0,0-.708,0l-1.646,1.647-.646-.646a.5.5,0,0,0-.707.707l1,1a.5.5,0,0,0,.707,0l2-2A.5.5,0,0,0,131.878,320.155Z" transform="translate(-125.941 -309.425)" fill="#fff"/>
  <path id="Path_919-2" data-name="Path 919" d="M290.5,352h-2a.5.5,0,0,0,0,1h2a.5.5,0,1,0,0-1Z" transform="translate(-280.084 -340.417)" fill="#fff"/>
</svg>
