<svg id="рестораны" xmlns="http://www.w3.org/2000/svg" width="15.552" height="15.482" viewBox="0 0 15.552 15.482">
  <path id="XMLID_98_" d="M7.073,303.23q-.1.008-.2.008a2.336,2.336,0,0,1-.529-.066l-3.984,3.984a.5.5,0,0,0,0,.708L3.393,308.9a.5.5,0,0,0,.707,0l4.788-4.787L8,303.151Z" transform="translate(-2.145 -293.56)" fill="#4b4b4b"/>
  <path id="XMLID_97_" d="M256.419,4.392a.478.478,0,0,0-.676,0l-2.582,2.582a.625.625,0,0,1-.884-.883l2.569-2.568a.5.5,0,1,0-.7-.7l-2.568,2.568a.625.625,0,0,1-.884-.883l2.581-2.581a.479.479,0,1,0-.678-.678l-2.9,2.9A2.684,2.684,0,0,0,249,6.72l1.947,1.947a2.685,2.685,0,0,0,2.571-.694l2.9-2.9A.479.479,0,0,0,256.419,4.392Z" transform="translate(-241.008 -1.104)" fill="#4b4b4b"/>
  <path id="XMLID_96_" d="M1.305,9.091a.527.527,0,0,0-.372-.154.534.534,0,0,0-.088.007.526.526,0,0,0-.386.29,4.589,4.589,0,0,0,.886,5.243l2.47,2.47a1.293,1.293,0,0,0,.915.379q.055,0,.11,0L6.274,17.2l6.254,6.747a.527.527,0,0,0,.376.169h.009a.53.53,0,0,0,.374-.154l1.071-1.071a.527.527,0,0,0,0-.745Z" transform="translate(0 -8.688)" fill="#4b4b4b"/>
</svg>
