<svg xmlns="http://www.w3.org/2000/svg" width="16" height="15.997" viewBox="0 0 16 15.997">
  <defs>
    <style>
      .cls-1 {
        fill: #858585;
      }
    </style>
  </defs>
  <path id="Поиск" class="cls-1" d="M15.871,13.836,11.893,9.858a6.445,6.445,0,0,0,.989-3.473A6.351,6.351,0,0,0,6.484.007,6.4,6.4,0,0,0,0,6.448a6.477,6.477,0,0,0,6.483,6.441,6.351,6.351,0,0,0,3.389-.968l3.978,3.957a.407.407,0,0,0,.589,0l1.452-1.452A.427.427,0,0,0,15.871,13.836ZM6.484,12.047A5.637,5.637,0,0,1,.843,6.427,5.566,5.566,0,0,1,6.484.828,5.494,5.494,0,0,1,12.04,6.364,5.567,5.567,0,0,1,6.484,12.047Zm7.641,2.947-3.578-3.578c.126-.105.716-.695.863-.863l3.578,3.578Z" transform="translate(0 -0.007)"/>
</svg>
