<svg id="выйти" xmlns="http://www.w3.org/2000/svg" width="15.552" height="15.5" viewBox="0 0 15.552 15.5">
  <path id="Path_914" data-name="Path 914" d="M7.75,15.058H1.937a.646.646,0,0,1-.646-.646V2.788a.646.646,0,0,1,.646-.646H7.75A.646.646,0,0,0,7.75.85H1.937A1.94,1.94,0,0,0,0,2.788V14.413A1.94,1.94,0,0,0,1.937,16.35H7.75a.646.646,0,1,0,0-1.292Z" transform="translate(0 -0.85)" fill="#4b4b4b"/>
  <path id="Path_915" data-name="Path 915" d="M180.293,111.226l-3.927-3.875a.646.646,0,1,0-.907.92l2.806,2.769h-7.519a.646.646,0,0,0,0,1.292h7.519l-2.806,2.769a.646.646,0,1,0,.907.92l3.927-3.875a.646.646,0,0,0,0-.92Z" transform="translate(-164.933 -103.935)" fill="#4b4b4b"/>
</svg>
