<svg xmlns="http://www.w3.org/2000/svg" width="24" height="24" viewBox="0 0 24 24">
  <defs>
    <style>
      .cls-1 {
        fill: #858585;
        fill-rule: evenodd;
      }
    </style>
  </defs>
  <path id="телеграм" class="cls-1" d="M12,0A12,12,0,1,0,24,12,12,12,0,0,0,12,0Zm3.224,17.871a.7.7,0,0,0,.646.085.679.679,0,0,0,.422-.491c.507-2.382,1.737-8.412,2.2-10.578a.457.457,0,0,0-.151-.443.47.47,0,0,0-.465-.082c-2.446.906-9.979,3.732-13.058,4.871a.48.48,0,0,0,.03.912c1.381.413,3.193.988,3.193.988s.847,2.558,1.288,3.858a.512.512,0,0,0,.352.336.5.5,0,0,0,.474-.121l1.805-1.7s2.084,1.527,3.266,2.369ZM8.8,12.809l.98,3.231L10,13.994s3.783-3.413,5.941-5.358a.162.162,0,0,0,.019-.22.165.165,0,0,0-.219-.037L8.8,12.809Z"/>
</svg>
