<svg xmlns="http://www.w3.org/2000/svg" width="16" height="16" viewBox="0 0 16 16">
  <path id="time" d="M8,0a8,8,0,1,0,8,8A8,8,0,0,0,8,0Zm.421,15.137v-.421a.421.421,0,1,0-.842,0v.421A7.155,7.155,0,0,1,.863,8.421h.421a.421.421,0,1,0,0-.842H.863A7.155,7.155,0,0,1,7.579.863v.421a.421.421,0,1,0,.842,0V.863a7.155,7.155,0,0,1,6.716,6.716h-.421a.421.421,0,1,0,0,.842h.421A7.138,7.138,0,0,1,8.421,15.137Zm2.105-4.611a.407.407,0,0,1-.589,0L7.705,8.295A.372.372,0,0,1,7.579,8V2.947a.421.421,0,1,1,.842,0V7.832l2.105,2.105A.407.407,0,0,1,10.526,10.526Z" fill="#4b4b4b"/>
</svg>
