<svg id="очистить_корзину" data-name="очистить корзину" xmlns="http://www.w3.org/2000/svg" width="11.672" height="16.004" viewBox="0 0 11.672 16.004">
  <defs>
    <style>
      .cls-1 {
        fill: #858585;
      }
    </style>
  </defs>
  <path id="Path_100" data-name="Path 100" class="cls-1" d="M176.415,244a.355.355,0,0,0,.355.355h9.023a.355.355,0,0,0,.355-.355V232.487h-9.734V244Zm6.866-9.557h1.333V242.2h-1.333Zm-2.666,0h1.333V242.2h-1.333Zm-2.666,0h1.333V242.2h-1.333Z" transform="translate(-175.446 -228.355)"/>
  <path id="Path_101" data-name="Path 101" class="cls-1" d="M130.706,1.634V.355A.355.355,0,0,0,130.351,0H125.07a.355.355,0,0,0-.355.355V2.078h-2.485a.355.355,0,0,0-.355.355v.9a.355.355,0,0,0,.355.355h10.961a.355.355,0,0,0,.355-.355v-.9a.355.355,0,0,0-.355-.355h-2.485V1.634ZM129.373,2h-3.326V1.333h3.326V2Z" transform="translate(-121.874)"/>
</svg>
