<svg xmlns="http://www.w3.org/2000/svg" width="24" height="24" viewBox="0 0 24 24">
  <defs>
    <style>
      .cls-1 {
        fill: #858585;
      }
    </style>
  </defs>
  <path id="вк" class="cls-1" d="M12,0A12,12,0,1,0,24,12,12,12,0,0,0,12,0Zm6.344,16.163H16.477c-1.055,0-1.232-.6-2.1-1.469-.785-.785-1.22-.183-1.2.935a.466.466,0,0,1-.495.534,4.955,4.955,0,0,1-4.3-1.58A20.179,20.179,0,0,1,5,8.884c0-.208.172-.3.459-.3h1.9c.5,0,.545.249.686.568.584,1.331,1.981,4,2.354,2.511.214-.856.3-2.839-.615-3.01-.52-.1.4-.652,1.722-.652a4.677,4.677,0,0,1,1.054.12c.673.156.676.458.666.9-.034,1.666-.235,2.786.2,3.069.419.271,1.521-1.5,2.1-2.871.159-.378.191-.632.643-.632H18.5c1.216,0-.159,1.748-1.21,3.112-.847,1.1-.8,1.12.183,2.034.7.651,1.53,1.54,1.53,2.043C19,16.011,18.814,16.163,18.344,16.163Z"/>
</svg>
